# This file uses meters as units for non-parametric coordinates.

mtllib Ball.mtl
g default
v -0.404608 -0.480131 -0.916454
v -0.233066 -0.560834 -0.916864
v -0.050260 -0.532338 -0.958217
v 0.073983 -0.405526 -1.024719
v 0.092207 -0.228837 -1.090968
v -0.002549 -0.069760 -1.131659
v -0.174091 0.010944 -1.131249
v -0.356897 -0.017552 -1.089895
v -0.481140 -0.144364 -1.023393
v -0.499364 -0.321053 -0.957144
v -0.563607 -0.618384 -0.688291
v -0.237314 -0.771891 -0.689071
v 0.110403 -0.717688 -0.767730
v 0.346728 -0.476478 -0.894225
v 0.381392 -0.140396 -1.020237
v 0.201156 0.162188 -1.097636
v -0.125137 0.315695 -1.096856
v -0.472854 0.261492 -1.018197
v -0.709179 0.020282 -0.891702
v -0.743843 -0.315800 -0.765690
v -0.672713 -0.692314 -0.407075
v -0.223609 -0.903599 -0.408148
v 0.254982 -0.828995 -0.516413
v 0.580255 -0.496998 -0.690518
v 0.627967 -0.034420 -0.863959
v 0.379892 0.382050 -0.970489
v -0.069211 0.593335 -0.969416
v -0.547803 0.518731 -0.861151
v -0.873076 0.186734 -0.687046
v -0.920787 -0.275844 -0.513604
v -0.721246 -0.694685 -0.100331
v -0.193293 -0.943065 -0.101593
v 0.369325 -0.855363 -0.228866
v 0.751706 -0.465077 -0.433539
v 0.807794 0.078716 -0.637431
v 0.516166 0.568306 -0.762665
v -0.011788 0.816686 -0.761403
v -0.574405 0.728984 -0.634129
v -0.956787 0.338698 -0.429457
v -1.012875 -0.205095 -0.225564
v -0.704456 -0.625264 0.201913
v -0.149333 -0.886427 0.200587
v 0.442238 -0.794211 0.066763
v 0.844298 -0.383840 -0.148442
v 0.903272 0.187938 -0.362828
v 0.596636 0.702723 -0.494506
v 0.041513 0.963886 -0.493180
v -0.550059 0.871670 -0.359356
v -0.952118 0.461299 -0.144151
v -1.011093 -0.110478 0.070235
v -0.623986 -0.490847 0.470072
v -0.096033 -0.739227 0.468810
v 0.466585 -0.651525 0.341536
v 0.848966 -0.261239 0.136864
v 0.905054 0.282554 -0.067029
v 0.613426 0.772144 -0.192262
v 0.085472 1.020524 -0.191000
v -0.477145 0.932822 -0.063727
v -0.859527 0.542536 0.140946
v -0.915615 -0.001257 0.344838
v -0.487713 -0.304591 0.677896
v -0.038609 -0.515876 0.676823
v 0.439982 -0.441272 0.568558
v 0.765255 -0.109275 0.394453
v 0.812966 0.353303 0.221011
v 0.564892 0.769774 0.114482
v 0.115788 0.981058 0.115555
v -0.362803 0.906454 0.223820
v -0.688076 0.574457 0.397925
v -0.735787 0.111880 0.571366
v -0.308976 -0.084728 0.805043
v 0.017317 -0.238236 0.804263
v 0.365034 -0.184033 0.725604
v 0.601358 0.057177 0.599109
v 0.636023 0.393260 0.473097
v 0.455786 0.695843 0.395698
v 0.129493 0.849351 0.396478
v -0.218224 0.795147 0.475137
v -0.454548 0.553938 0.601632
v -0.489213 0.217855 0.727644
v -0.105272 0.147219 0.839066
v 0.066270 0.066516 0.838656
v 0.249076 0.095012 0.797302
v 0.373319 0.221823 0.730800
v 0.391543 0.398512 0.664551
v 0.296787 0.557590 0.623861
v 0.125245 0.638293 0.624271
v -0.057561 0.609797 0.665624
v -0.181804 0.482986 0.732126
v -0.200028 0.306297 0.798375
v -0.211281 -0.291088 -1.069228
v 0.103460 0.368547 0.776635
vt 0.534376 0.000942
vt 0.534471 0.034218
vt 0.534566 0.067495
vt 0.534661 0.100771
vt 0.534756 0.134047
vt 0.534851 0.167324
vt 0.534946 0.200600
vt 0.535041 0.233877
vt 0.535136 0.267153
vt 0.535232 0.300429
vt 0.535327 0.333705
vt 0.526093 0.000980
vt 0.526188 0.034256
vt 0.526284 0.067532
vt 0.526379 0.100809
vt 0.526474 0.134085
vt 0.526569 0.167361
vt 0.526664 0.200638
vt 0.526759 0.233914
vt 0.526854 0.267190
vt 0.526949 0.300467
vt 0.527044 0.333743
vt 0.517811 0.001017
vt 0.517906 0.034293
vt 0.518001 0.067570
vt 0.518096 0.100846
vt 0.518191 0.134122
vt 0.518286 0.167399
vt 0.518381 0.200675
vt 0.518477 0.233952
vt 0.518572 0.267228
vt 0.518667 0.300504
vt 0.518762 0.333780
vt 0.509529 0.001055
vt 0.509624 0.034331
vt 0.509719 0.067607
vt 0.509814 0.100884
vt 0.509909 0.134160
vt 0.510004 0.167436
vt 0.510099 0.200713
vt 0.510194 0.233989
vt 0.510289 0.267265
vt 0.510384 0.300542
vt 0.510479 0.333818
vt 0.501246 0.001092
vt 0.501341 0.034368
vt 0.501436 0.067645
vt 0.501531 0.100921
vt 0.501626 0.134197
vt 0.501722 0.167474
vt 0.501817 0.200750
vt 0.501912 0.234027
vt 0.502007 0.267303
vt 0.502102 0.300579
vt 0.502197 0.333855
vt 0.492964 0.001130
vt 0.493059 0.034406
vt 0.493154 0.067682
vt 0.493249 0.100959
vt 0.493344 0.134235
vt 0.493439 0.167511
vt 0.493534 0.200787
vt 0.493629 0.234064
vt 0.493724 0.267340
vt 0.493820 0.300617
vt 0.493915 0.333893
vt 0.484681 0.001167
vt 0.484776 0.034443
vt 0.484871 0.067720
vt 0.484967 0.100996
vt 0.485062 0.134272
vt 0.485157 0.167549
vt 0.485252 0.200825
vt 0.485347 0.234102
vt 0.485442 0.267378
vt 0.485537 0.300654
vt 0.485632 0.333930
vt 0.476399 0.001205
vt 0.476494 0.034481
vt 0.476589 0.067757
vt 0.476684 0.101034
vt 0.476779 0.134310
vt 0.476874 0.167586
vt 0.476969 0.200863
vt 0.477065 0.234139
vt 0.477160 0.267415
vt 0.477255 0.300692
vt 0.477350 0.333968
vt 0.468117 0.001242
vt 0.468212 0.034518
vt 0.468307 0.067795
vt 0.468402 0.101071
vt 0.468497 0.134347
vt 0.468592 0.167624
vt 0.468687 0.200900
vt 0.468782 0.234177
vt 0.468877 0.267453
vt 0.468972 0.300729
vt 0.469068 0.334005
vt 0.542706 0.017543
vt 0.542801 0.050819
vt 0.542896 0.084095
vt 0.542991 0.117372
vt 0.543086 0.150648
vt 0.543181 0.183924
vt 0.543276 0.217201
vt 0.543371 0.250477
vt 0.543466 0.283753
vt 0.543562 0.317030
vt 0.459882 0.017918
vt 0.459977 0.051194
vt 0.460072 0.084470
vt 0.460167 0.117747
vt 0.460262 0.151023
vt 0.460357 0.184299
vt 0.460452 0.217576
vt 0.460547 0.250852
vt 0.460642 0.284128
vt 0.460737 0.317405
vn -0.407700 -0.572313 -0.711504
vn -0.183764 -0.677666 -0.712039
vn -0.183556 -0.847669 -0.497759
vn -0.537965 -0.680935 -0.496912
vn 0.054875 -0.640466 -0.766024
vn 0.194122 -0.788796 -0.583196
vn 0.217065 -0.474923 -0.852837
vn 0.450810 -0.526802 -0.720590
vn 0.240855 -0.244269 -0.939320
vn 0.488461 -0.161760 -0.857461
vn 0.117159 -0.036605 -0.992438
vn 0.292695 0.166896 -0.941528
vn -0.106777 0.068748 -0.991903
vn -0.061714 0.333631 -0.940682
vn -0.345416 0.031548 -0.937919
vn -0.439393 0.274757 -0.855244
vn -0.507607 -0.133995 -0.851106
vn -0.696081 0.012763 -0.717850
vn -0.531397 -0.364649 -0.764623
vn -0.733732 -0.352279 -0.580980
vn -0.168232 -0.958832 -0.228776
vn -0.632323 -0.740497 -0.227668
vn 0.326330 -0.881739 -0.340655
vn 0.662457 -0.538663 -0.520569
vn 0.711761 -0.060649 -0.699799
vn 0.455408 0.369719 -0.809883
vn -0.008682 0.588055 -0.808774
vn -0.503244 0.510961 -0.696896
vn -0.839371 0.167885 -0.516982
vn -0.888675 -0.310129 -0.337752
vn -0.138224 -0.988408 0.062803
vn -0.673099 -0.736771 0.064081
vn 0.431770 -0.899556 -0.066140
vn 0.819164 -0.504153 -0.273495
vn 0.875988 0.046769 -0.480061
vn 0.580536 0.542777 -0.606936
vn 0.045661 0.794414 -0.605658
vn -0.524333 0.705562 -0.476715
vn -0.911727 0.310160 -0.269360
vn -0.968551 -0.240763 -0.062794
vn -0.096130 -0.932010 0.349453
vn -0.655365 -0.668912 0.350789
vn 0.499824 -0.839111 0.214638
vn 0.904862 -0.425700 -0.002162
vn 0.964273 0.150314 -0.218135
vn 0.655365 0.668912 -0.350789
vn 0.096130 0.932010 -0.349453
vn -0.499824 0.839111 -0.214638
vn -0.904862 0.425700 0.002162
vn -0.964273 -0.150313 0.218135
vn -0.045661 -0.794414 0.605658
vn -0.580536 -0.542777 0.606936
vn 0.524333 -0.705562 0.476716
vn 0.911727 -0.310159 0.269360
vn 0.968551 0.240763 0.062794
vn 0.673099 0.736771 -0.064081
vn 0.138224 0.988408 -0.062803
vn -0.431770 0.899556 0.066140
vn -0.819164 0.504153 0.273495
vn -0.875988 -0.046769 0.480061
vn 0.008682 -0.588055 0.808775
vn -0.455408 -0.369719 0.809883
vn 0.503244 -0.510961 0.696896
vn 0.839372 -0.167885 0.516982
vn 0.888675 0.310129 0.337752
vn 0.632323 0.740497 0.227668
vn 0.168232 0.958832 0.228776
vn -0.326330 0.881739 0.340655
vn -0.662457 0.538663 0.520569
vn -0.711761 0.060649 0.699799
vn 0.061714 -0.333631 0.940682
vn -0.292695 -0.166896 0.941528
vn 0.439393 -0.274757 0.855244
vn 0.696081 -0.012763 0.717850
vn 0.733732 0.352279 0.580979
vn 0.537965 0.680935 0.496912
vn 0.183556 0.847669 0.497759
vn -0.194122 0.788796 0.583196
vn -0.450810 0.526802 0.720590
vn -0.488462 0.161760 0.857461
vn 0.106777 -0.068747 0.991903
vn -0.117159 0.036605 0.992438
vn 0.345416 -0.031548 0.937919
vn 0.507607 0.133995 0.851106
vn 0.531397 0.364649 0.764623
vn 0.407700 0.572313 0.711504
vn 0.183764 0.677666 0.712039
vn -0.054875 0.640466 0.766024
vn -0.217065 0.474923 0.852837
vn -0.240855 0.244269 0.939320
vn -0.158536 -0.332261 -0.929768
vn 0.158536 0.332261 0.929768
s 1
g pSphere2
usemtl lambert2SG
f 1/1/1 2/2/2 12/13/3 11/12/4
f 2/2/2 3/3/5 13/14/6 12/13/3
f 3/3/5 4/4/7 14/15/8 13/14/6
f 4/4/7 5/5/9 15/16/10 14/15/8
f 5/5/9 6/6/11 16/17/12 15/16/10
f 6/6/11 7/7/13 17/18/14 16/17/12
f 7/7/13 8/8/15 18/19/16 17/18/14
f 8/8/15 9/9/17 19/20/18 18/19/16
f 9/9/17 10/10/19 20/21/20 19/20/18
f 10/10/19 1/11/1 11/22/4 20/21/20
f 11/12/4 12/13/3 22/24/21 21/23/22
f 12/13/3 13/14/6 23/25/23 22/24/21
f 13/14/6 14/15/8 24/26/24 23/25/23
f 14/15/8 15/16/10 25/27/25 24/26/24
f 15/16/10 16/17/12 26/28/26 25/27/25
f 16/17/12 17/18/14 27/29/27 26/28/26
f 17/18/14 18/19/16 28/30/28 27/29/27
f 18/19/16 19/20/18 29/31/29 28/30/28
f 19/20/18 20/21/20 30/32/30 29/31/29
f 20/21/20 11/22/4 21/33/22 30/32/30
f 21/23/22 22/24/21 32/35/31 31/34/32
f 22/24/21 23/25/23 33/36/33 32/35/31
f 23/25/23 24/26/24 34/37/34 33/36/33
f 24/26/24 25/27/25 35/38/35 34/37/34
f 25/27/25 26/28/26 36/39/36 35/38/35
f 26/28/26 27/29/27 37/40/37 36/39/36
f 27/29/27 28/30/28 38/41/38 37/40/37
f 28/30/28 29/31/29 39/42/39 38/41/38
f 29/31/29 30/32/30 40/43/40 39/42/39
f 30/32/30 21/33/22 31/44/32 40/43/40
f 31/34/32 32/35/31 42/46/41 41/45/42
f 32/35/31 33/36/33 43/47/43 42/46/41
f 33/36/33 34/37/34 44/48/44 43/47/43
f 34/37/34 35/38/35 45/49/45 44/48/44
f 35/38/35 36/39/36 46/50/46 45/49/45
f 36/39/36 37/40/37 47/51/47 46/50/46
f 37/40/37 38/41/38 48/52/48 47/51/47
f 38/41/38 39/42/39 49/53/49 48/52/48
f 39/42/39 40/43/40 50/54/50 49/53/49
f 40/43/40 31/44/32 41/55/42 50/54/50
f 41/45/42 42/46/41 52/57/51 51/56/52
f 42/46/41 43/47/43 53/58/53 52/57/51
f 43/47/43 44/48/44 54/59/54 53/58/53
f 44/48/44 45/49/45 55/60/55 54/59/54
f 45/49/45 46/50/46 56/61/56 55/60/55
f 46/50/46 47/51/47 57/62/57 56/61/56
f 47/51/47 48/52/48 58/63/58 57/62/57
f 48/52/48 49/53/49 59/64/59 58/63/58
f 49/53/49 50/54/50 60/65/60 59/64/59
f 50/54/50 41/55/42 51/66/52 60/65/60
f 51/56/52 52/57/51 62/68/61 61/67/62
f 52/57/51 53/58/53 63/69/63 62/68/61
f 53/58/53 54/59/54 64/70/64 63/69/63
f 54/59/54 55/60/55 65/71/65 64/70/64
f 55/60/55 56/61/56 66/72/66 65/71/65
f 56/61/56 57/62/57 67/73/67 66/72/66
f 57/62/57 58/63/58 68/74/68 67/73/67
f 58/63/58 59/64/59 69/75/69 68/74/68
f 59/64/59 60/65/60 70/76/70 69/75/69
f 60/65/60 51/66/52 61/77/62 70/76/70
f 61/67/62 62/68/61 72/79/71 71/78/72
f 62/68/61 63/69/63 73/80/73 72/79/71
f 63/69/63 64/70/64 74/81/74 73/80/73
f 64/70/64 65/71/65 75/82/75 74/81/74
f 65/71/65 66/72/66 76/83/76 75/82/75
f 66/72/66 67/73/67 77/84/77 76/83/76
f 67/73/67 68/74/68 78/85/78 77/84/77
f 68/74/68 69/75/69 79/86/79 78/85/78
f 69/75/69 70/76/70 80/87/80 79/86/79
f 70/76/70 61/77/62 71/88/72 80/87/80
f 71/78/72 72/79/71 82/90/81 81/89/82
f 72/79/71 73/80/73 83/91/83 82/90/81
f 73/80/73 74/81/74 84/92/84 83/91/83
f 74/81/74 75/82/75 85/93/85 84/92/84
f 75/82/75 76/83/76 86/94/86 85/93/85
f 76/83/76 77/84/77 87/95/87 86/94/86
f 77/84/77 78/85/78 88/96/88 87/95/87
f 78/85/78 79/86/79 89/97/89 88/96/88
f 79/86/79 80/87/80 90/98/90 89/97/89
f 80/87/80 71/88/72 81/99/82 90/98/90
f 2/2/2 1/1/1 91/100/91
f 3/3/5 2/2/2 91/101/91
f 4/4/7 3/3/5 91/102/91
f 5/5/9 4/4/7 91/103/91
f 6/6/11 5/5/9 91/104/91
f 7/7/13 6/6/11 91/105/91
f 8/8/15 7/7/13 91/106/91
f 9/9/17 8/8/15 91/107/91
f 10/10/19 9/9/17 91/108/91
f 1/11/1 10/10/19 91/109/91
f 81/89/82 82/90/81 92/110/92
f 82/90/81 83/91/83 92/111/92
f 83/91/83 84/92/84 92/112/92
f 84/92/84 85/93/85 92/113/92
f 85/93/85 86/94/86 92/114/92
f 86/94/86 87/95/87 92/115/92
f 87/95/87 88/96/88 92/116/92
f 88/96/88 89/97/89 92/117/92
f 89/97/89 90/98/90 92/118/92
f 90/98/90 81/99/82 92/119/92
g default
v 0.317212 -0.403894 -1.112389
v 0.487546 -0.463577 -0.995706
v 0.664951 -0.391953 -0.897783
v 0.781663 -0.216381 -0.856027
v 0.793103 -0.003923 -0.886385
v 0.694900 0.164269 -0.977263
v 0.524566 0.223952 -1.093946
v 0.347162 0.152329 -1.191868
v 0.230449 -0.023243 -1.233624
v 0.219010 -0.235701 -1.203266
v 0.063082 -0.635706 -1.038104
v 0.386702 -0.749099 -0.816415
v 0.723755 -0.613021 -0.630373
v 0.945498 -0.279449 -0.551039
v 0.967233 0.124202 -0.608717
v 0.780657 0.443753 -0.781374
v 0.457037 0.557145 -1.003063
v 0.119985 0.421067 -1.189106
v -0.101759 0.087496 -1.268439
v -0.123493 -0.316156 -1.210762
v -0.201864 -0.800849 -0.876629
v 0.242945 -0.956704 -0.571924
v 0.706215 -0.769668 -0.316214
v 1.010996 -0.311182 -0.207172
v 1.040870 0.243627 -0.286448
v 0.784427 0.682841 -0.523762
v 0.339619 0.838696 -0.828467
v -0.123652 0.651660 -1.084177
v -0.428432 0.193175 -1.193220
v -0.458306 -0.361634 -1.113944
v -0.451728 -0.883740 -0.644366
v 0.070607 -1.066759 -0.286551
v 0.614624 -0.847124 0.013727
v 0.972525 -0.308727 0.141775
v 1.007606 0.342782 0.048681
v 0.706466 0.858548 -0.229995
v 0.184132 1.041568 -0.587809
v -0.359885 0.821932 -0.888087
v -0.717787 0.283536 -1.016135
v -0.752867 -0.367973 -0.923042
v -0.662561 -0.876873 -0.364056
v -0.113569 -1.069232 0.012020
v 0.458210 -0.838388 0.327623
v 0.834378 -0.272515 0.462205
v 0.871248 0.412244 0.364361
v 0.554740 0.954332 0.071462
v 0.005749 1.146691 -0.304613
v -0.566031 0.915847 -0.620216
v -0.942198 0.349974 -0.754798
v -0.979069 -0.334784 -0.656953
v -0.814287 -0.781089 -0.062598
v -0.291952 -0.964109 0.295215
v 0.252064 -0.744473 0.595494
v 0.609966 -0.206076 0.723542
v 0.645047 0.445432 0.630449
v 0.343907 0.961199 0.351773
v -0.178428 1.144218 -0.006042
v -0.722444 0.924583 -0.306320
v -1.080346 0.386186 -0.434368
v -1.115427 -0.265322 -0.341274
v -0.892247 -0.605382 0.231168
v -0.447440 -0.761237 0.535874
v 0.015831 -0.574201 0.791585
v 0.320612 -0.115715 0.900627
v 0.350486 0.439093 0.821350
v 0.094043 0.878308 0.584038
v -0.350765 1.034162 0.279332
v -0.814036 0.847126 0.023621
v -1.118816 0.388641 -0.085421
v -1.148690 -0.166168 -0.006145
v -0.888479 -0.366294 0.488783
v -0.564858 -0.479686 0.710470
v -0.227805 -0.343608 0.896513
v -0.006062 -0.010036 0.975846
v 0.015673 0.393615 0.918169
v -0.170903 0.713166 0.745511
v -0.494523 0.826558 0.523822
v -0.831576 0.690480 0.337781
v -1.053319 0.356909 0.258447
v -1.075054 -0.046743 0.316124
v -0.802722 -0.086810 0.684669
v -0.632387 -0.146493 0.801353
v -0.454983 -0.074870 0.899275
v -0.338270 0.100702 0.941031
v -0.326830 0.313160 0.910674
v -0.425032 0.481353 0.819797
v -0.595367 0.541036 0.703113
v -0.772771 0.469413 0.605191
v -0.889484 0.293841 0.563434
v -0.900924 0.081382 0.593792
v 0.535141 -0.128047 -1.091496
v -0.642962 0.205506 0.798903
vt 0.534376 0.000942
vt 0.534471 0.034218
vt 0.534566 0.067495
vt 0.534661 0.100771
vt 0.534756 0.134047
vt 0.534851 0.167324
vt 0.534946 0.200600
vt 0.535041 0.233877
vt 0.535136 0.267153
vt 0.535232 0.300429
vt 0.535327 0.333705
vt 0.526093 0.000980
vt 0.526188 0.034256
vt 0.526284 0.067532
vt 0.526379 0.100809
vt 0.526474 0.134085
vt 0.526569 0.167361
vt 0.526664 0.200638
vt 0.526759 0.233914
vt 0.526854 0.267190
vt 0.526949 0.300467
vt 0.527044 0.333743
vt 0.517811 0.001017
vt 0.517906 0.034293
vt 0.518001 0.067570
vt 0.518096 0.100846
vt 0.518191 0.134122
vt 0.518286 0.167399
vt 0.518381 0.200675
vt 0.518477 0.233952
vt 0.518572 0.267228
vt 0.518667 0.300504
vt 0.518762 0.333780
vt 0.509529 0.001055
vt 0.509624 0.034331
vt 0.509719 0.067607
vt 0.509814 0.100884
vt 0.509909 0.134160
vt 0.510004 0.167436
vt 0.510099 0.200713
vt 0.510194 0.233989
vt 0.510289 0.267265
vt 0.510384 0.300542
vt 0.510479 0.333818
vt 0.501246 0.001092
vt 0.501341 0.034368
vt 0.501436 0.067645
vt 0.501531 0.100921
vt 0.501626 0.134197
vt 0.501722 0.167474
vt 0.501817 0.200750
vt 0.501912 0.234027
vt 0.502007 0.267303
vt 0.502102 0.300579
vt 0.502197 0.333855
vt 0.492964 0.001130
vt 0.493059 0.034406
vt 0.493154 0.067682
vt 0.493249 0.100959
vt 0.493344 0.134235
vt 0.493439 0.167511
vt 0.493534 0.200787
vt 0.493629 0.234064
vt 0.493724 0.267340
vt 0.493820 0.300617
vt 0.493915 0.333893
vt 0.484681 0.001167
vt 0.484776 0.034443
vt 0.484871 0.067720
vt 0.484967 0.100996
vt 0.485062 0.134272
vt 0.485157 0.167549
vt 0.485252 0.200825
vt 0.485347 0.234102
vt 0.485442 0.267378
vt 0.485537 0.300654
vt 0.485632 0.333930
vt 0.476399 0.001205
vt 0.476494 0.034481
vt 0.476589 0.067757
vt 0.476684 0.101034
vt 0.476779 0.134310
vt 0.476874 0.167586
vt 0.476969 0.200863
vt 0.477065 0.234139
vt 0.477160 0.267415
vt 0.477255 0.300692
vt 0.477350 0.333968
vt 0.468117 0.001242
vt 0.468212 0.034518
vt 0.468307 0.067795
vt 0.468402 0.101071
vt 0.468497 0.134347
vt 0.468592 0.167624
vt 0.468687 0.200900
vt 0.468782 0.234177
vt 0.468877 0.267453
vt 0.468972 0.300729
vt 0.469068 0.334005
vt 0.542706 0.017543
vt 0.542801 0.050819
vt 0.542896 0.084095
vt 0.542991 0.117372
vt 0.543086 0.150648
vt 0.543181 0.183924
vt 0.543276 0.217201
vt 0.543371 0.250477
vt 0.543466 0.283753
vt 0.543562 0.317030
vt 0.459882 0.017918
vt 0.459977 0.051194
vt 0.460072 0.084470
vt 0.460167 0.117747
vt 0.460262 0.151023
vt 0.460357 0.184299
vt 0.460452 0.217576
vt 0.460547 0.250852
vt 0.460642 0.284128
vt 0.460737 0.317405
vn -0.259538 0.465072 0.846373
vn -0.057421 0.634446 0.770831
vn -0.369372 0.743749 0.557137
vn -0.457143 0.534309 0.711009
vn -0.694272 0.612578 0.377803
vn -0.662949 0.451219 0.597411
vn -0.908020 0.291034 0.301330
vn -0.798346 0.247538 0.548971
vn -0.928971 -0.098063 0.356928
vn -0.811617 0.001067 0.584189
vn -0.749123 -0.406090 0.523360
vn -0.697693 -0.194052 0.689614
vn -0.437172 -0.515394 0.737055
vn -0.500090 -0.263291 0.824977
vn -0.112272 -0.384223 0.916389
vn -0.294284 -0.180199 0.938576
vn 0.101475 -0.062680 0.992862
vn -0.158886 0.023480 0.987018
vn 0.122426 0.326417 0.937264
vn -0.145615 0.269951 0.951800
vn 0.161480 0.761767 0.627404
vn -0.245994 0.904540 0.348273
vn -0.670383 0.733202 0.114024
vn -0.949583 0.313197 0.014134
vn -0.976949 -0.195046 0.086757
vn -0.742030 -0.597397 0.304153
vn -0.334555 -0.740171 0.583284
vn 0.089834 -0.568833 0.817532
vn 0.369033 -0.148828 0.917423
vn 0.396400 0.359415 0.844800
vn 0.368084 0.824767 0.429271
vn -0.100699 0.989022 0.108141
vn -0.588942 0.791904 -0.161352
vn -0.910151 0.308705 -0.276272
vn -0.941635 -0.276009 -0.192723
vn -0.671369 -0.738898 0.057383
vn -0.202585 -0.903154 0.378513
vn 0.285658 -0.706036 0.648007
vn 0.606867 -0.222837 0.762926
vn 0.638351 0.361877 0.679377
vn 0.543048 0.816915 0.194289
vn 0.053228 0.988542 -0.141252
vn -0.456923 0.782578 -0.422839
vn -0.792545 0.277697 -0.542915
vn -0.825442 -0.333255 -0.455616
vn -0.543048 -0.816916 -0.194288
vn -0.053229 -0.988542 0.141252
vn 0.456923 -0.782579 0.422839
vn 0.792545 -0.277697 0.542915
vn 0.825442 0.333255 0.455617
vn 0.671369 0.738898 -0.057383
vn 0.202585 0.903154 -0.378513
vn -0.285657 0.706036 -0.648007
vn -0.606866 0.222837 -0.762927
vn -0.638350 -0.361878 -0.679377
vn -0.368084 -0.824767 -0.429271
vn 0.100700 -0.989022 -0.108141
vn 0.588942 -0.791905 0.161352
vn 0.910151 -0.308705 0.276273
vn 0.941635 0.276009 0.192723
vn 0.742030 0.597397 -0.304152
vn 0.334555 0.740171 -0.583284
vn -0.089834 0.568833 -0.817532
vn -0.369033 0.148828 -0.917423
vn -0.396400 -0.359416 -0.844800
vn -0.161481 -0.761766 -0.627404
vn 0.245994 -0.904540 -0.348272
vn 0.670383 -0.733202 -0.114024
vn 0.949583 -0.313197 -0.014134
vn 0.976950 0.195046 -0.086757
vn 0.749123 0.406091 -0.523359
vn 0.437172 0.515395 -0.737054
vn 0.112273 0.384222 -0.916389
vn -0.101475 0.062679 -0.992862
vn -0.122427 -0.326417 -0.937264
vn 0.057421 -0.634446 -0.770832
vn 0.369373 -0.743749 -0.557137
vn 0.694272 -0.612577 -0.377803
vn 0.908020 -0.291034 -0.301329
vn 0.928971 0.098063 -0.356926
vn 0.697693 0.194051 -0.689615
vn 0.500089 0.263290 -0.824978
vn 0.294283 0.180200 -0.938576
vn 0.158886 -0.023479 -0.987018
vn 0.145615 -0.269951 -0.951800
vn 0.259538 -0.465072 -0.846374
vn 0.457143 -0.534308 -0.711010
vn 0.662949 -0.451218 -0.597412
vn 0.798346 -0.247538 -0.548971
vn 0.811617 -0.001068 -0.584188
vn -0.523070 0.148095 0.839324
vn 0.523071 -0.148095 -0.839324
s 1
g Ball
usemtl lambert4SG
f 93/120/93 103/131/94 104/132/95 94/121/96
f 94/121/96 104/132/95 105/133/97 95/122/98
f 95/122/98 105/133/97 106/134/99 96/123/100
f 96/123/100 106/134/99 107/135/101 97/124/102
f 97/124/102 107/135/101 108/136/103 98/125/104
f 98/125/104 108/136/103 109/137/105 99/126/106
f 99/126/106 109/137/105 110/138/107 100/127/108
f 100/127/108 110/138/107 111/139/109 101/128/110
f 101/128/110 111/139/109 112/140/111 102/129/112
f 102/129/112 112/140/111 103/141/94 93/130/93
f 103/131/94 113/142/113 114/143/114 104/132/95
f 104/132/95 114/143/114 115/144/115 105/133/97
f 105/133/97 115/144/115 116/145/116 106/134/99
f 106/134/99 116/145/116 117/146/117 107/135/101
f 107/135/101 117/146/117 118/147/118 108/136/103
f 108/136/103 118/147/118 119/148/119 109/137/105
f 109/137/105 119/148/119 120/149/120 110/138/107
f 110/138/107 120/149/120 121/150/121 111/139/109
f 111/139/109 121/150/121 122/151/122 112/140/111
f 112/140/111 122/151/122 113/152/113 103/141/94
f 113/142/113 123/153/123 124/154/124 114/143/114
f 114/143/114 124/154/124 125/155/125 115/144/115
f 115/144/115 125/155/125 126/156/126 116/145/116
f 116/145/116 126/156/126 127/157/127 117/146/117
f 117/146/117 127/157/127 128/158/128 118/147/118
f 118/147/118 128/158/128 129/159/129 119/148/119
f 119/148/119 129/159/129 130/160/130 120/149/120
f 120/149/120 130/160/130 131/161/131 121/150/121
f 121/150/121 131/161/131 132/162/132 122/151/122
f 122/151/122 132/162/132 123/163/123 113/152/113
f 123/153/123 133/164/133 134/165/134 124/154/124
f 124/154/124 134/165/134 135/166/135 125/155/125
f 125/155/125 135/166/135 136/167/136 126/156/126
f 126/156/126 136/167/136 137/168/137 127/157/127
f 127/157/127 137/168/137 138/169/138 128/158/128
f 128/158/128 138/169/138 139/170/139 129/159/129
f 129/159/129 139/170/139 140/171/140 130/160/130
f 130/160/130 140/171/140 141/172/141 131/161/131
f 131/161/131 141/172/141 142/173/142 132/162/132
f 132/162/132 142/173/142 133/174/133 123/163/123
f 133/164/133 143/175/143 144/176/144 134/165/134
f 134/165/134 144/176/144 145/177/145 135/166/135
f 135/166/135 145/177/145 146/178/146 136/167/136
f 136/167/136 146/178/146 147/179/147 137/168/137
f 137/168/137 147/179/147 148/180/148 138/169/138
f 138/169/138 148/180/148 149/181/149 139/170/139
f 139/170/139 149/181/149 150/182/150 140/171/140
f 140/171/140 150/182/150 151/183/151 141/172/141
f 141/172/141 151/183/151 152/184/152 142/173/142
f 142/173/142 152/184/152 143/185/143 133/174/133
f 143/175/143 153/186/153 154/187/154 144/176/144
f 144/176/144 154/187/154 155/188/155 145/177/145
f 145/177/145 155/188/155 156/189/156 146/178/146
f 146/178/146 156/189/156 157/190/157 147/179/147
f 147/179/147 157/190/157 158/191/158 148/180/148
f 148/180/148 158/191/158 159/192/159 149/181/149
f 149/181/149 159/192/159 160/193/160 150/182/150
f 150/182/150 160/193/160 161/194/161 151/183/151
f 151/183/151 161/194/161 162/195/162 152/184/152
f 152/184/152 162/195/162 153/196/153 143/185/143
f 153/186/153 163/197/163 164/198/164 154/187/154
f 154/187/154 164/198/164 165/199/165 155/188/155
f 155/188/155 165/199/165 166/200/166 156/189/156
f 156/189/156 166/200/166 167/201/167 157/190/157
f 157/190/157 167/201/167 168/202/168 158/191/158
f 158/191/158 168/202/168 169/203/169 159/192/159
f 159/192/159 169/203/169 170/204/170 160/193/160
f 160/193/160 170/204/170 171/205/171 161/194/161
f 161/194/161 171/205/171 172/206/172 162/195/162
f 162/195/162 172/206/172 163/207/163 153/196/153
f 163/197/163 173/208/173 174/209/174 164/198/164
f 164/198/164 174/209/174 175/210/175 165/199/165
f 165/199/165 175/210/175 176/211/176 166/200/166
f 166/200/166 176/211/176 177/212/177 167/201/167
f 167/201/167 177/212/177 178/213/178 168/202/168
f 168/202/168 178/213/178 179/214/179 169/203/169
f 169/203/169 179/214/179 180/215/180 170/204/170
f 170/204/170 180/215/180 181/216/181 171/205/171
f 171/205/171 181/216/181 182/217/182 172/206/172
f 172/206/172 182/217/182 173/218/173 163/207/163
f 94/121/96 183/219/183 93/120/93
f 95/122/98 183/220/183 94/121/96
f 96/123/100 183/221/183 95/122/98
f 97/124/102 183/222/183 96/123/100
f 98/125/104 183/223/183 97/124/102
f 99/126/106 183/224/183 98/125/104
f 100/127/108 183/225/183 99/126/106
f 101/128/110 183/226/183 100/127/108
f 102/129/112 183/227/183 101/128/110
f 93/130/93 183/228/183 102/129/112
f 173/208/173 184/229/184 174/209/174
f 174/209/174 184/230/184 175/210/175
f 175/210/175 184/231/184 176/211/176
f 176/211/176 184/232/184 177/212/177
f 177/212/177 184/233/184 178/213/178
f 178/213/178 184/234/184 179/214/179
f 179/214/179 184/235/184 180/215/180
f 180/215/180 184/236/184 181/216/181
f 181/216/181 184/237/184 182/217/182
f 182/217/182 184/238/184 173/218/173
