# This file uses meters as units for non-parametric coordinates.

mtllib Cell.mtl
g default
v -0.273390 -1.102401 0.549625
v -0.146982 -1.162713 0.550642
v -0.145781 -1.101827 0.672840
v -0.146527 -0.975538 0.730936
v -0.272817 -0.974791 0.672840
v -0.333703 -0.975993 0.550642
v 0.274537 -1.089578 0.537536
v 0.276546 -0.966518 0.659592
v 0.146527 -0.975538 0.730936
v 0.145781 -1.101827 0.672840
v 0.146982 -1.162713 0.550642
v -0.273390 1.102401 0.549625
v -0.333703 0.975993 0.550642
v -0.272817 0.974791 0.672840
v -0.146527 0.975538 0.730936
v -0.145781 1.101827 0.672840
v -0.146982 1.162713 0.550642
v 0.275160 1.089195 0.538003
v 0.146982 1.162713 0.550642
v 0.145781 1.101827 0.672840
v 0.146527 0.975538 0.730936
v 0.276270 0.966349 0.660041
v -0.272817 0.974791 -0.758367
v -0.333703 0.975993 -0.636170
v -0.273390 1.102401 -0.635152
v -0.146982 1.162713 -0.636170
v -0.145781 1.101827 -0.758367
v -0.146527 0.975538 -0.816463
v 0.276270 0.966349 -0.745569
v 0.146527 0.975538 -0.816463
v 0.145781 1.101827 -0.758367
v 0.146982 1.162713 -0.636170
v 0.275249 1.089235 -0.623640
v -0.273390 -1.102401 -0.635152
v -0.333703 -0.975993 -0.636170
v -0.272817 -0.974791 -0.758367
v -0.146527 -0.975538 -0.816463
v -0.145781 -1.101827 -0.758367
v -0.146982 -1.162713 -0.636170
v 0.274640 -1.089620 -0.623176
v 0.146982 -1.162713 -0.636170
v 0.145781 -1.101827 -0.758367
v 0.146527 -0.975538 -0.816463
v 0.276546 -0.966518 -0.745119
v -0.247489 -1.076500 0.648177
v 0.247508 -1.076476 0.648151
v -0.247489 1.076500 0.648177
v 0.247508 1.076476 0.648151
v -0.247489 1.076500 -0.733704
v 0.247508 1.076476 -0.733679
v -0.247489 -1.076500 -0.733704
v 0.247508 -1.076476 -0.733679
v 0.253198 0.856920 -0.491088
v 0.324508 0.961917 -0.622017
v 0.256011 0.764522 -0.557172
v 0.255965 0.764593 0.471495
v 0.324338 0.961955 0.536167
v 0.253028 0.856958 0.407829
v 0.324077 -0.967213 -0.616406
v 0.252422 -0.857238 -0.490577
v 0.256276 -0.768861 -0.556777
v 0.323890 -0.967247 0.530545
v 0.256229 -0.768931 0.471095
v 0.252236 -0.857272 0.407307
vt 0.382398 0.721297
vt 0.382398 0.725163
vt 0.435062 0.725163
vt 0.435062 0.721297
vt 0.382398 0.734495
vt 0.435062 0.734495
vt 0.376577 0.734495
vt 0.378282 0.725163
vt 0.378282 0.725163
vt 0.376577 0.734495
vt 0.382398 0.721297
vt 0.378282 0.734495
vt 0.378282 0.923226
vt 0.382398 0.923226
vt 0.376577 0.923226
vt 0.435062 0.743460
vt 0.432429 0.734495
vt 0.435062 0.734029
vt 0.382398 0.725163
vt 0.435062 0.721297
vt 0.435062 0.725163
vt 0.378282 0.734495
vt 0.378282 0.923226
vt 0.376577 0.923226
vt 0.382398 0.932558
vt 0.435062 0.932558
vt 0.435062 0.923226
vt 0.382398 0.936424
vt 0.435062 0.936424
vt 0.378282 0.932558
vt 0.378282 0.932558
vt 0.382398 0.936424
vt 0.382398 0.932558
vt 0.435062 0.932558
vt 0.435062 0.936424
vt 0.439178 0.923226
vt 0.439178 0.734495
vt 0.440883 0.923226
vt 0.440883 0.734495
vt 0.439178 0.932558
vt 0.439178 0.932558
vt 0.440883 0.923226
vt 0.439178 0.923226
vt 0.439178 0.734495
vt 0.440883 0.734495
vt 0.432429 0.923226
vt 0.435062 0.913789
vt 0.435268 0.923226
vt 0.439178 0.725163
vt 0.439178 0.725163
vt 0.379039 0.726878
vt 0.379039 0.726878
vt 0.379039 0.930843
vt 0.379039 0.930843
vt 0.438421 0.930843
vt 0.438421 0.930843
vt 0.438421 0.726878
vt 0.438421 0.726878
vt 0.382398 0.913789
vt 0.384900 0.923226
vt 0.382192 0.923226
vt 0.384900 0.734495
vt 0.382398 0.743460
vt 0.382398 0.734029
vt 0.330376 0.696634
vt 0.331780 0.698813
vt 0.303928 0.698765
vt 0.305256 0.696588
vt 0.332052 0.740715
vt 0.303851 0.740729
vt 0.330658 0.743067
vt 0.305189 0.743084
vn 0.138862 0.989431 -0.041760
vn 0.138862 0.989431 0.041760
vn 0.713800 0.699647 0.031354
vn 0.713800 0.699647 -0.031354
vn 0.998629 0.027241 0.044689
vn 0.998629 0.027241 -0.044689
vn 0.135112 0.024875 -0.990518
vn -0.161588 0.024111 -0.986564
vn -0.119521 0.687790 -0.716003
vn 0.099544 0.688928 -0.717962
vn -0.163632 0.985673 -0.040896
vn 0.998629 -0.027241 -0.044689
vn 0.698628 -0.018052 -0.715258
vn 0.698628 0.018052 -0.715258
vn 0.135112 -0.024875 -0.990518
vn -0.999721 -0.001727 -0.023542
vn -0.999642 0.000883 0.026737
vn -0.998341 -0.056284 -0.012108
vn -0.847584 0.530581 -0.009254
vn -0.846183 0.532814 0.009160
vn -0.163644 0.985672 0.040881
vn -0.161551 -0.024084 -0.986570
vn -0.832144 -0.009673 -0.554476
vn -0.834514 0.009561 -0.550903
vn 0.998629 -0.027241 0.044689
vn 0.713800 -0.699647 0.031354
vn 0.713800 -0.699647 -0.031354
vn 0.138862 -0.989431 0.041760
vn 0.138862 -0.989431 -0.041760
vn -0.164337 -0.985559 -0.040827
vn -0.119343 -0.687885 -0.715941
vn 0.099544 -0.688928 -0.717962
vn -0.164348 -0.985558 0.040813
vn -0.846357 -0.532541 0.008896
vn -0.847751 -0.530319 -0.008986
vn 0.698626 0.018052 0.715259
vn 0.698626 -0.018052 0.715259
vn 0.135112 0.024875 0.990518
vn 0.135112 -0.024875 0.990518
vn -0.161550 -0.024084 0.986570
vn -0.119279 -0.687857 0.715979
vn 0.099544 -0.688927 0.717963
vn -0.161587 0.024111 0.986564
vn -0.834187 0.009551 0.551399
vn -0.831816 -0.009665 0.554967
vn -0.998211 0.058534 -0.012166
vn -0.999346 0.003343 0.035999
vn -0.999721 0.001568 -0.023587
vn -0.119454 0.687761 0.716042
vn 0.099543 0.688926 0.717963
vn 0.520720 0.587120 -0.619791
vn -0.573221 0.562934 -0.595419
vn 0.520720 -0.587120 -0.619791
vn -0.571785 -0.564100 -0.595695
vn 0.520719 -0.587119 0.619792
vn -0.571172 -0.564272 0.596121
vn 0.520719 0.587119 0.619792
vn -0.572562 0.563123 0.595874
vn -0.999722 0.001504 0.023550
vn -0.999315 0.004014 -0.036789
vn -0.998210 0.058572 0.012091
vn -0.998340 -0.056328 0.012002
vn -0.999624 0.000213 -0.027432
vn -0.999722 -0.001657 0.023508
s 1
g Cell
usemtl lambert4SG
f 2/1/1 39/4/2 34/3/3 1/2/4
f 1/2/4 34/3/3 35/6/5 6/5/6
f 4/7/7 9/10/8 10/9/9 3/8/10
f 3/8/10 10/9/9 11/11/11 2/1/1
f 6/5/6 13/14/12 14/13/13 5/12/14
f 5/12/14 14/13/13 15/15/15 4/7/7
f 61/16/16 59/18/17 60/17/18
f 7/19/19 40/21/20 41/20/21 11/11/11
f 9/10/8 21/24/22 22/23/23 8/22/24
f 13/14/12 24/27/25 25/26/26 12/25/27
f 12/25/27 25/26/26 26/29/28 17/28/29
f 17/28/29 19/32/30 20/31/31 16/30/32
f 16/30/32 20/31/31 21/24/22 15/15/15
f 19/32/30 32/35/33 33/34/34 18/33/35
f 24/27/25 35/6/5 36/37/36 23/36/37
f 23/36/37 36/37/36 37/39/38 28/38/39
f 28/38/39 30/42/40 31/41/41 27/40/42
f 27/40/42 31/41/41 32/35/33 26/29/28
f 30/42/40 43/45/43 44/44/44 29/43/45
f 53/46/46 54/48/47 55/47/48
f 39/4/2 41/20/21 42/50/49 38/49/50
f 38/49/50 42/50/49 43/45/43 37/39/38
f 4/7/7 15/15/15 21/24/22 9/10/8
f 17/28/29 26/29/28 32/35/33 19/32/30
f 28/38/39 37/39/38 43/45/43 30/42/40
f 39/4/2 2/1/1 11/11/11 41/20/21
f 35/6/5 24/27/25 13/14/12 6/5/6
f 5/12/14 45/51/51 1/2/4 6/5/6
f 1/2/4 45/51/51 3/8/10 2/1/1
f 3/8/10 45/51/51 5/12/14 4/7/7
f 10/9/9 46/52/52 7/19/19 11/11/11
f 8/22/24 46/52/52 10/9/9 9/10/8
f 16/30/32 47/53/53 12/25/27 17/28/29
f 12/25/27 47/53/53 14/13/13 13/14/12
f 14/13/13 47/53/53 16/30/32 15/15/15
f 18/33/35 48/54/54 20/31/31 19/32/30
f 20/31/31 48/54/54 22/23/23 21/24/22
f 27/40/42 49/55/55 23/36/37 28/38/39
f 23/36/37 49/55/55 25/26/26 24/27/25
f 25/26/26 49/55/55 27/40/42 26/29/28
f 29/43/45 50/56/56 31/41/41 30/42/40
f 31/41/41 50/56/56 33/34/34 32/35/33
f 38/49/50 51/57/57 34/3/3 39/4/2
f 34/3/3 51/57/57 36/37/36 35/6/5
f 36/37/36 51/57/57 38/49/50 37/39/38
f 40/21/20 52/58/58 42/50/49 41/20/21
f 42/50/49 52/58/58 44/44/44 43/45/43
f 33/34/34 50/56/56 29/43/45 54/48/47
f 56/59/59 57/61/60 58/60/61
f 33/34/34 54/48/47 53/46/46
f 22/23/23 48/54/54 18/33/35 57/61/60
f 64/62/62 62/64/63 63/63/64
f 44/44/44 52/58/58 40/21/20 59/18/17
f 29/43/45 44/44/44 61/16/16 55/47/48
f 22/23/23 57/61/60 56/59/59
f 7/19/19 46/52/52 8/22/24 62/64/63
f 60/17/18 59/18/17 40/21/20
f 18/33/35 33/34/34 53/46/46 58/60/61
f 18/33/35 58/60/61 57/61/60
f 8/22/24 63/63/64 62/64/63
f 29/43/45 55/47/48 54/48/47
f 44/44/44 59/18/17 61/16/16
f 64/62/62 60/17/18 40/21/20 7/19/19
f 64/62/62 7/19/19 62/64/63
f 8/22/24 22/23/23 56/59/59 63/63/64
f 60/65/18 64/68/62 63/67/64 61/66/16
f 63/67/64 56/70/59 55/69/48 61/66/16
f 56/70/59 58/72/61 53/71/46 55/69/48
g default
v -0.230158 -1.059168 0.537936
v -0.134834 -1.098652 0.537936
v -0.134834 -1.059168 0.628704
v -0.134834 -0.963845 0.666302
v -0.230158 -0.963845 0.628704
v -0.269642 -0.963845 0.537936
v 0.230158 -1.059168 0.537936
v 0.230158 -0.963845 0.628704
v 0.134834 -0.963845 0.666302
v 0.134834 -1.059168 0.628704
v 0.134834 -1.098652 0.537936
v -0.230158 1.059168 0.537936
v -0.269642 0.963845 0.537936
v -0.230158 0.963845 0.628704
v -0.134834 0.963845 0.666302
v -0.134834 1.059168 0.628704
v -0.134834 1.098652 0.537936
v 0.230158 1.059168 0.537936
v 0.134834 1.098652 0.537936
v 0.134834 1.059168 0.628704
v 0.134834 0.963845 0.666302
v 0.230158 0.963845 0.628704
v -0.230158 0.963845 -0.714231
v -0.269642 0.963845 -0.623463
v -0.230158 1.059168 -0.623463
v -0.134834 1.098652 -0.623463
v -0.134834 1.059168 -0.714231
v -0.134834 0.963845 -0.751829
v 0.230158 0.963845 -0.714231
v 0.134834 0.963845 -0.751829
v 0.134834 1.059168 -0.714231
v 0.134834 1.098652 -0.623463
v 0.230158 1.059168 -0.623463
v -0.230158 -1.059168 -0.623463
v -0.269642 -0.963845 -0.623463
v -0.230158 -0.963845 -0.714231
v -0.134834 -0.963845 -0.751829
v -0.134834 -1.059168 -0.714231
v -0.134834 -1.098652 -0.623463
v 0.230158 -1.059168 -0.623463
v 0.134834 -1.098652 -0.623463
v 0.134834 -1.059168 -0.714231
v 0.134834 -0.963845 -0.751829
v 0.230158 -0.963845 -0.714231
v -0.212638 -1.041649 0.612022
v 0.212638 -1.041649 0.612022
v -0.212638 1.041649 0.612022
v 0.212638 1.041649 0.612022
v -0.212638 1.041649 -0.697549
v 0.212638 1.041649 -0.697549
v -0.212638 -1.041649 -0.697549
v 0.212638 -1.041649 -0.697549
v 0.191533 0.859869 -0.509015
v 0.267668 0.963845 -0.628002
v 0.191533 0.773883 -0.560820
v 0.191533 0.773883 0.475292
v 0.267668 0.963845 0.542474
v 0.191533 0.859869 0.426077
v 0.267668 -0.968611 -0.623463
v 0.191533 -0.859869 -0.509015
v 0.191533 -0.778182 -0.560820
v 0.267668 -0.968611 0.537936
v 0.191533 -0.778182 0.475292
v 0.191533 -0.859869 0.426077
vt 0.382398 0.721297
vt 0.382398 0.725163
vt 0.435062 0.725163
vt 0.435062 0.721297
vt 0.382398 0.734495
vt 0.435062 0.734495
vt 0.376577 0.734495
vt 0.378282 0.725163
vt 0.378282 0.725163
vt 0.376577 0.734495
vt 0.382398 0.721297
vt 0.378282 0.734495
vt 0.378282 0.923226
vt 0.382398 0.923226
vt 0.376577 0.923226
vt 0.435062 0.743460
vt 0.432429 0.734495
vt 0.435062 0.734029
vt 0.382398 0.725163
vt 0.435062 0.721297
vt 0.435062 0.725163
vt 0.378282 0.734495
vt 0.378282 0.923226
vt 0.376577 0.923226
vt 0.382398 0.932558
vt 0.435062 0.932558
vt 0.435062 0.923226
vt 0.382398 0.936424
vt 0.435062 0.936424
vt 0.378282 0.932558
vt 0.378282 0.932558
vt 0.382398 0.936424
vt 0.382398 0.932558
vt 0.435062 0.932558
vt 0.435062 0.936424
vt 0.439178 0.923226
vt 0.439178 0.734495
vt 0.440883 0.923226
vt 0.440883 0.734495
vt 0.439178 0.932558
vt 0.439178 0.932558
vt 0.440883 0.923226
vt 0.439178 0.923226
vt 0.439178 0.734495
vt 0.440883 0.734495
vt 0.432429 0.923226
vt 0.435062 0.913789
vt 0.435268 0.923226
vt 0.439178 0.725163
vt 0.439178 0.725163
vt 0.379039 0.726878
vt 0.379039 0.726878
vt 0.379039 0.930843
vt 0.379039 0.930843
vt 0.438421 0.930843
vt 0.438421 0.930843
vt 0.438421 0.726878
vt 0.438421 0.726878
vt 0.382398 0.913789
vt 0.384900 0.923226
vt 0.382192 0.923226
vt 0.384900 0.734495
vt 0.382398 0.743460
vt 0.382398 0.734029
vt 0.519052 0.725661
vt 0.520456 0.727840
vt 0.492605 0.727793
vt 0.493932 0.725615
vt 0.520728 0.769742
vt 0.492527 0.769756
vt 0.519334 0.772094
vt 0.493865 0.772111
vn -0.105657 -0.993978 0.029072
vn -0.712548 -0.701273 0.022154
vn -0.712548 -0.701273 -0.022154
vn -0.105657 -0.993978 -0.029072
vn -0.999355 -0.018689 0.030676
vn -0.999355 -0.018689 -0.030676
vn -0.101230 -0.017019 0.994717
vn -0.078982 -0.686071 0.723235
vn 0.078982 -0.686071 0.723235
vn 0.101230 -0.017019 0.994717
vn 0.105657 -0.993978 0.029072
vn -0.693578 -0.012529 0.720273
vn -0.693578 0.012529 0.720273
vn -0.999355 0.018689 0.030676
vn -0.101230 0.017019 0.994717
vn 0.998935 0.001704 0.046104
vn 0.990699 0.135638 0.010837
vn 0.998114 0.061095 0.005927
vn 0.893885 -0.448281 -0.003717
vn 0.105657 -0.993978 -0.029072
vn 0.892031 -0.451959 0.003722
vn 0.862818 -0.000713 0.505515
vn 0.859966 0.001078 0.510351
vn 0.101230 0.017019 0.994717
vn -0.712548 0.701273 0.022154
vn -0.712548 0.701273 -0.022154
vn -0.999355 0.018689 -0.030676
vn -0.105657 0.993978 0.029072
vn -0.105657 0.993978 -0.029072
vn -0.078982 0.686071 0.723235
vn 0.078982 0.686071 0.723235
vn 0.105657 0.993978 0.029072
vn 0.894732 0.446581 -0.004575
vn 0.892899 0.450233 0.004591
vn 0.105657 0.993978 -0.029072
vn -0.693576 0.012529 -0.720275
vn -0.693576 -0.012529 -0.720275
vn -0.101230 0.017019 -0.994717
vn -0.101230 -0.017019 -0.994717
vn -0.078981 0.686069 -0.723237
vn 0.078981 0.686069 -0.723237
vn 0.101230 0.017019 -0.994717
vn 0.859964 0.001078 -0.510353
vn 0.862816 -0.000713 -0.505517
vn 0.101230 -0.017019 -0.994717
vn 0.990925 -0.133954 0.011122
vn 0.998928 -0.001660 0.046264
vn 0.998109 -0.061473 0.000224
vn -0.078981 -0.686069 -0.723237
vn 0.078981 -0.686069 -0.723237
vn -0.515251 -0.584639 0.626669
vn 0.511668 -0.586067 0.628269
vn -0.515251 0.584639 0.626669
vn 0.511668 0.586067 0.628268
vn -0.515250 0.584638 -0.626671
vn 0.511666 0.586066 -0.628271
vn -0.515250 -0.584638 -0.626671
vn 0.511666 -0.586066 -0.628271
vn 0.998930 -0.001608 -0.046225
vn 0.990901 -0.134115 -0.011324
vn 0.998039 -0.062582 0.001457
vn 0.990676 0.135793 -0.011033
vn 0.998937 0.001652 -0.046067
vn 0.998051 0.062262 -0.004228
s 1
g pCube1
usemtl lambert2SG
f 66/73/65 65/74/66 98/75/67 103/76/68
f 65/74/66 70/77/69 99/78/70 98/75/67
f 68/79/71 67/80/72 74/81/73 73/82/74
f 67/80/72 66/73/65 75/83/75 74/81/73
f 70/77/69 69/84/76 78/85/77 77/86/78
f 69/84/76 68/79/71 79/87/79 78/85/77
f 125/88/80 124/89/81 123/90/82
f 71/91/83 75/83/75 105/92/84 104/93/85
f 73/82/74 72/94/86 86/95/87 85/96/88
f 77/86/78 76/97/89 89/98/90 88/99/91
f 76/97/89 81/100/92 90/101/93 89/98/90
f 81/100/92 80/102/94 84/103/95 83/104/96
f 80/102/94 79/87/79 85/96/88 84/103/95
f 83/104/96 82/105/97 97/106/98 96/107/99
f 88/99/91 87/108/100 100/109/101 99/78/70
f 87/108/100 92/110/102 101/111/103 100/109/101
f 92/110/102 91/112/104 95/113/105 94/114/106
f 91/112/104 90/101/93 96/107/99 95/113/105
f 94/114/106 93/115/107 108/116/108 107/117/109
f 117/118/110 119/119/111 118/120/112
f 103/76/68 102/121/113 106/122/114 105/92/84
f 102/121/113 101/111/103 107/117/109 106/122/114
f 68/79/71 73/82/74 85/96/88 79/87/79
f 81/100/92 83/104/96 96/107/99 90/101/93
f 92/110/102 94/114/106 107/117/109 101/111/103
f 103/76/68 105/92/84 75/83/75 66/73/65
f 99/78/70 70/77/69 77/86/78 88/99/91
f 69/84/76 70/77/69 65/74/66 109/123/115
f 65/74/66 66/73/65 67/80/72 109/123/115
f 67/80/72 68/79/71 69/84/76 109/123/115
f 74/81/73 75/83/75 71/91/83 110/124/116
f 72/94/86 73/82/74 74/81/73 110/124/116
f 80/102/94 81/100/92 76/97/89 111/125/117
f 76/97/89 77/86/78 78/85/77 111/125/117
f 78/85/77 79/87/79 80/102/94 111/125/117
f 82/105/97 83/104/96 84/103/95 112/126/118
f 84/103/95 85/96/88 86/95/87 112/126/118
f 91/112/104 92/110/102 87/108/100 113/127/119
f 87/108/100 88/99/91 89/98/90 113/127/119
f 89/98/90 90/101/93 91/112/104 113/127/119
f 93/115/107 94/114/106 95/113/105 114/128/120
f 95/113/105 96/107/99 97/106/98 114/128/120
f 102/121/113 103/76/68 98/75/67 115/129/121
f 98/75/67 99/78/70 100/109/101 115/129/121
f 100/109/101 101/111/103 102/121/113 115/129/121
f 104/93/85 105/92/84 106/122/114 116/130/122
f 106/122/114 107/117/109 108/116/108 116/130/122
f 97/106/98 118/120/112 93/115/107 114/128/120
f 120/131/123 122/132/124 121/133/125
f 97/106/98 117/118/110 118/120/112
f 86/95/87 121/133/125 82/105/97 112/126/118
f 128/134/126 127/135/127 126/136/128
f 108/116/108 123/90/82 104/93/85 116/130/122
f 93/115/107 119/119/111 125/88/80 108/116/108
f 86/95/87 120/131/123 121/133/125
f 71/91/83 126/136/128 72/94/86 110/124/116
f 124/89/81 104/93/85 123/90/82
f 82/105/97 122/132/124 117/118/110 97/106/98
f 82/105/97 121/133/125 122/132/124
f 72/94/86 126/136/128 127/135/127
f 93/115/107 118/120/112 119/119/111
f 108/116/108 125/88/80 123/90/82
f 128/134/126 71/91/83 104/93/85 124/89/81
f 128/134/126 126/136/128 71/91/83
f 72/94/86 127/135/127 120/131/123 86/95/87
f 124/137/81 125/138/80 127/139/127 128/140/126
f 127/139/127 125/138/80 119/141/111 120/142/123
f 120/142/123 119/141/111 117/143/110 122/144/124
