# Blender v2.81 (sub 16) OBJ File: 'mushroom3_export.blend'
# www.blender.org
mtllib bench1.mtl
o bench_Cube.011
v -0.124800 0.000000 0.071444
v -0.110140 0.315116 0.063052
v -0.124800 0.000000 -0.071444
v -0.110140 0.315116 -0.063052
v 0.124800 0.000000 0.071444
v 0.110140 0.315116 0.063052
v 0.124800 0.000000 -0.071444
v 0.110140 0.315116 -0.063052
v -0.107516 0.491342 0.061549
v -0.107516 0.491342 -0.061549
v 0.107516 0.491342 -0.061549
v 0.107516 0.491342 0.061549
v 0.378504 0.476575 -0.039552
v 0.378504 0.476575 0.039552
v 0.378504 0.553573 -0.039552
v 0.378504 0.553573 0.039552
v -0.360582 0.454434 0.063052
v -0.360582 0.454434 -0.063052
v -0.270197 0.605738 0.061549
v -0.270197 0.605738 -0.061549
v -0.606808 1.172277 0.063052
v -0.606808 1.172277 -0.063052
v -0.474275 1.288455 0.061549
v -0.474275 1.288455 -0.061549
v -0.124800 0.000000 1.779008
v -0.110140 0.315116 1.770615
v -0.124800 0.000000 1.636119
v -0.110140 0.315116 1.644512
v 0.124800 0.000000 1.779008
v 0.110140 0.315116 1.770615
v 0.124800 0.000000 1.636119
v 0.110140 0.315116 1.644512
v -0.107516 0.491342 1.769113
v -0.107516 0.491342 1.646014
v 0.107516 0.491342 1.646014
v 0.107516 0.491342 1.769113
v 0.378504 0.476575 1.668012
v 0.378504 0.476575 1.747116
v 0.378504 0.553573 1.668012
v 0.378504 0.553573 1.747116
v -0.360582 0.454434 1.770615
v -0.360582 0.454434 1.644512
v -0.270197 0.605738 1.769113
v -0.270197 0.605738 1.646014
v -0.606808 1.172277 1.770615
v -0.606808 1.172277 1.644512
v -0.474275 1.288455 1.769113
v -0.474275 1.288455 1.646014
v 0.162540 0.575030 1.943764
v 0.170781 0.520908 1.943764
v 0.162540 0.575030 -0.205477
v 0.170781 0.520908 -0.205477
v 0.420177 0.614256 1.943764
v 0.428417 0.560134 1.943764
v 0.420177 0.614256 -0.205477
v 0.428417 0.560134 -0.205477
v -0.109173 0.595823 1.943764
v -0.114903 0.541378 1.943764
v -0.109173 0.595823 -0.205477
v -0.114903 0.541378 -0.205477
v 0.150001 0.568550 1.943764
v 0.144272 0.514104 1.943764
v 0.150001 0.568550 -0.205477
v 0.144272 0.514104 -0.205477
v -0.395316 1.255051 1.943764
v -0.446760 1.236327 1.943764
v -0.395316 1.255051 -0.205477
v -0.446760 1.236327 -0.205477
v -0.245809 0.844284 1.943764
v -0.297253 0.825560 1.943764
v -0.245809 0.844284 -0.205477
v -0.297253 0.825560 -0.205477
v -0.395316 1.257549 0.510936
v -0.395316 1.238054 1.227350
v -0.446760 1.219330 1.227350
v -0.446760 1.238825 0.510936
v -0.245809 0.827287 1.227350
v -0.245809 0.846783 0.510936
v -0.297253 0.828059 0.510936
v -0.297253 0.808563 1.227350
v -0.154315 -0.027906 0.100600
v -0.133619 0.302812 0.105445
v -0.154315 -0.027906 -0.100600
v -0.133619 0.302812 -0.105445
v 0.154315 -0.027906 0.100600
v 0.134619 0.303693 0.105126
v 0.154315 -0.027906 -0.100600
v 0.134619 0.303693 -0.105126
v -0.098041 0.521262 0.100471
v -0.098041 0.521262 -0.100471
v 0.105436 0.524912 -0.098544
v 0.105436 0.524912 0.098544
v 0.414311 0.457283 -0.068629
v 0.414311 0.457283 0.068629
v 0.404972 0.586222 -0.066634
v 0.404972 0.586222 0.066634
v -0.390137 0.429723 0.094924
v -0.390137 0.429723 -0.094924
v -0.245065 0.623814 0.100811
v -0.245065 0.623814 -0.100811
v -0.645284 1.182623 0.093257
v -0.645284 1.182623 -0.093257
v -0.462716 1.328388 0.089326
v -0.462716 1.328388 -0.089326
v -0.154315 -0.027906 1.808164
v -0.133619 0.302812 1.813009
v -0.154315 -0.027906 1.606964
v -0.133619 0.302812 1.602119
v 0.154315 -0.027906 1.808164
v 0.134619 0.303693 1.812690
v 0.154315 -0.027906 1.606964
v 0.134619 0.303693 1.602438
v -0.098041 0.521262 1.808035
v -0.098041 0.521262 1.607092
v 0.105436 0.524912 1.609020
v 0.105436 0.524912 1.806108
v 0.414311 0.457283 1.638935
v 0.414311 0.457283 1.776192
v 0.404972 0.586222 1.640929
v 0.404972 0.586222 1.774198
v -0.390137 0.429723 1.802487
v -0.390137 0.429723 1.612640
v -0.245065 0.623814 1.808375
v -0.245065 0.623814 1.606752
v -0.645284 1.182621 1.800821
v -0.645284 1.182621 1.614306
v -0.462716 1.328388 1.796890
v -0.462716 1.328388 1.618238
v 0.129657 0.599222 1.972632
v 0.146589 0.488024 1.972632
v 0.129657 0.599222 -0.234345
v 0.146589 0.488024 -0.234345
v 0.444369 0.647140 1.972632
v 0.461301 0.535942 1.972632
v 0.444369 0.647140 -0.234345
v 0.461301 0.535942 -0.234345
v -0.134861 0.627553 1.972632
v -0.146633 0.515691 1.972632
v -0.134861 0.627553 -0.234345
v -0.146633 0.515691 -0.234345
v 0.181731 0.594237 1.972632
v 0.169959 0.482374 1.972632
v 0.181731 0.594237 -0.234345
v 0.169959 0.482374 -0.234345
v -0.378111 1.292381 1.972230
v -0.483712 1.253992 1.972441
v -0.378056 1.292001 -0.234403
v -0.483767 1.253518 -0.234371
v -0.208761 0.827446 1.972813
v -0.314554 0.788897 1.973028
v -0.208818 0.826971 -0.234317
v -0.314499 0.788512 -0.234285
v -0.374318 1.302921 0.511470
v -0.373964 1.283264 1.227430
v -0.492294 1.239985 1.227385
v -0.491943 1.260236 0.511193
v -0.200715 0.805691 1.227312
v -0.200362 0.825940 0.510692
v -0.318517 0.782810 0.510398
v -0.318167 0.763148 1.227272
vt 0.097970 0.834023
vt 0.097970 0.965716
vt 0.175715 0.965716
vt 0.175715 0.834023
vt 0.175715 0.965716
vt 0.175715 0.834023
vt 0.097970 0.965716
vt 0.097970 0.834023
vt 0.097970 0.883875
vt 0.097970 0.883875
vt 0.097970 0.965716
vt 0.175715 0.883875
vt 0.175715 0.883875
vt 0.097970 0.883875
vt 0.097970 0.883875
vt 0.097970 0.883875
vt 0.175715 0.883875
vt 0.175715 0.883875
vt 0.097970 0.883875
vt 0.097970 0.965716
vt 0.175715 0.883875
vt 0.175715 0.965716
vt 0.175715 0.965716
vt 0.175715 0.883875
vt 0.097970 0.834023
vt 0.097970 0.965716
vt 0.175715 0.965716
vt 0.175715 0.834023
vt 0.175715 0.965716
vt 0.175715 0.834023
vt 0.097970 0.965716
vt 0.097970 0.834023
vt 0.097970 0.883875
vt 0.097970 0.883875
vt 0.097970 0.965716
vt 0.175715 0.883875
vt 0.175715 0.883875
vt 0.097970 0.883875
vt 0.097970 0.883875
vt 0.097970 0.883875
vt 0.175715 0.883875
vt 0.175715 0.883875
vt 0.097970 0.883875
vt 0.097970 0.965716
vt 0.175715 0.883875
vt 0.175715 0.965716
vt 0.175715 0.965716
vt 0.175715 0.883875
vt 0.300740 0.539369
vt 0.345837 0.539369
vt 0.345837 0.426637
vt 0.300740 0.426637
vt 0.345837 0.621068
vt 0.345837 0.508343
vt 0.300740 0.621068
vt 0.300740 0.508343
vt 0.300740 0.539369
vt 0.345837 0.539369
vt 0.345837 0.426637
vt 0.300740 0.426637
vt 0.345837 0.621068
vt 0.345837 0.508343
vt 0.300740 0.621068
vt 0.300740 0.508343
vt 0.335651 0.619215
vt 0.359399 0.618356
vt 0.359399 0.611921
vt 0.335651 0.612780
vt 0.359399 0.477211
vt 0.359399 0.470776
vt 0.311902 0.471370
vt 0.288154 0.477211
vt 0.288154 0.470776
vt 0.311902 0.464935
vt 0.288154 0.618356
vt 0.288154 0.611921
vt 0.311902 0.612514
vt 0.311902 0.606082
vt 0.335651 0.471635
vt 0.335651 0.478070
vt 0.097970 0.834023
vt 0.175715 0.834023
vt 0.175715 0.965716
vt 0.097970 0.965716
vt 0.175715 0.834023
vt 0.175715 0.965716
vt 0.097970 0.834023
vt 0.097970 0.965716
vt 0.097970 0.965716
vt 0.097970 0.883875
vt 0.097970 0.883875
vt 0.175715 0.883875
vt 0.097970 0.883875
vt 0.175715 0.883875
vt 0.097970 0.883875
vt 0.097970 0.883875
vt 0.175715 0.883875
vt 0.175715 0.883875
vt 0.097970 0.965716
vt 0.097970 0.883875
vt 0.175715 0.883875
vt 0.175715 0.965716
vt 0.175715 0.965716
vt 0.175715 0.883875
vt 0.097970 0.834023
vt 0.175715 0.834023
vt 0.175715 0.965716
vt 0.097970 0.965716
vt 0.175715 0.834023
vt 0.175715 0.965716
vt 0.097970 0.834023
vt 0.097970 0.965716
vt 0.097970 0.965716
vt 0.097970 0.883875
vt 0.097970 0.883875
vt 0.175715 0.883875
vt 0.097970 0.883875
vt 0.175715 0.883875
vt 0.097970 0.883875
vt 0.097970 0.883875
vt 0.175715 0.883875
vt 0.175715 0.883875
vt 0.097970 0.965716
vt 0.097970 0.883875
vt 0.175715 0.883875
vt 0.175715 0.965716
vt 0.175715 0.965716
vt 0.175715 0.883875
vt 0.300740 0.539369
vt 0.300740 0.426637
vt 0.345837 0.426637
vt 0.345837 0.539369
vt 0.345837 0.508343
vt 0.345837 0.621068
vt 0.300740 0.508343
vt 0.300740 0.621068
vt 0.300740 0.539369
vt 0.300740 0.426637
vt 0.345837 0.426637
vt 0.345837 0.539369
vt 0.345837 0.508343
vt 0.345837 0.621068
vt 0.300740 0.508343
vt 0.300740 0.621068
vt 0.335651 0.619215
vt 0.335651 0.612780
vt 0.359399 0.611921
vt 0.359399 0.618356
vt 0.359399 0.470776
vt 0.359399 0.477211
vt 0.311902 0.471370
vt 0.311902 0.464935
vt 0.288154 0.470776
vt 0.288154 0.477211
vt 0.288154 0.611921
vt 0.288154 0.618356
vt 0.311902 0.612514
vt 0.311902 0.606082
vt 0.335651 0.471635
vt 0.335651 0.478070
vn -0.9989 0.0465 0.0000
vn 0.0000 0.0266 -0.9996
vn 0.9989 0.0465 0.0000
vn 0.0000 0.0266 0.9996
vn 0.0000 -1.0000 0.0000
vn 0.0048 0.0078 1.0000
vn 0.0000 1.0000 0.0000
vn 0.0000 0.0085 1.0000
vn 0.0000 0.0085 -1.0000
vn 0.0813 0.0068 0.9967
vn 1.0000 0.0000 0.0000
vn -0.2238 0.9746 0.0000
vn 0.5155 -0.8569 0.0000
vn 0.0813 0.0068 -0.9967
vn 0.0097 0.0031 0.9999
vn 0.5752 0.8180 0.0000
vn 0.0048 0.0078 -1.0000
vn -0.4861 -0.8739 0.0000
vn -0.6592 0.7520 0.0000
vn -0.9459 -0.3245 0.0000
vn 0.0097 0.0031 -0.9999
vn 0.9581 0.2864 0.0000
vn -0.9886 -0.1505 0.0000
vn 0.0000 0.0000 -1.0000
vn 0.9886 0.1505 0.0000
vn 0.0000 0.0000 1.0000
vn -0.1505 0.9886 0.0000
vn 0.1505 -0.9886 0.0000
vn -0.9945 0.1047 0.0000
vn 0.9945 -0.1047 0.0000
vn 0.1047 0.9945 0.0000
vn -0.1047 -0.9945 0.0000
vn -0.3420 0.9397 -0.0033
vn 0.3419 -0.9395 0.0223
vn 0.9397 0.3420 -0.0081
vn -0.9397 -0.3420 0.0081
vn -0.9397 -0.3420 0.0012
vn -0.9397 -0.3420 -0.0093
vn 0.9397 0.3420 -0.0012
vn 0.9397 0.3420 0.0093
vn 0.3420 -0.9397 0.0033
vn 0.3419 -0.9394 -0.0256
vn -0.3419 0.9395 -0.0223
vn -0.3419 0.9394 0.0256
vn 0.9980 -0.0625 0.0000
vn -0.0006 0.0141 0.9999
vn -0.9982 -0.0593 0.0000
vn -0.0006 0.0141 -0.9999
vn 0.0212 -0.0071 -0.9998
vn 0.0179 -0.9998 0.0000
vn -0.0045 -0.0262 -0.9996
vn -0.0045 -0.0262 0.9996
vn -0.1041 -0.0358 -0.9939
vn -0.9974 -0.0722 0.0000
vn 0.2005 -0.9797 0.0000
vn -0.4813 0.8765 0.0000
vn -0.1041 -0.0358 0.9939
vn 0.0115 -0.0053 -0.9999
vn -0.5721 -0.8202 0.0000
vn 0.0212 -0.0071 0.9998
vn 0.4434 0.8963 0.0000
vn 0.6239 -0.7815 0.0000
vn 0.9471 0.3210 0.0000
vn 0.0115 -0.0053 0.9999
vn -0.9555 -0.2951 0.0000
vn 0.3415 -0.9398 0.0121
vn 0.0002 0.0003 1.0000
vn -0.3413 0.9395 -0.0309
vn -0.0014 -0.0018 -1.0000
vn -0.9398 -0.3416 -0.0006
vn 0.9394 0.3424 -0.0168
vn 0.9398 0.3417 0.0075
vn 0.9396 0.3422 0.0095
vn -0.9395 -0.3423 0.0100
vn -0.9397 -0.3418 -0.0095
vn -0.3425 0.9395 0.0053
vn -0.3416 0.9395 0.0262
vn 0.3426 -0.9394 0.0136
vn 0.3422 -0.9393 -0.0262
g bench_Cube.011_color_palette
usemtl color_palette
s off
f 1/1/1 2/2/1 4/3/1 3/4/1
f 3/4/2 4/3/2 8/5/2 7/6/2
f 7/6/3 8/5/3 6/7/3 5/8/3
f 5/8/4 6/7/4 2/2/4 1/1/4
f 3/4/5 7/6/5 5/8/5 1/1/5
f 2/2/6 9/9/6 19/10/6 17/11/6
f 11/12/7 10/13/7 9/9/7 12/14/7
f 2/2/8 6/7/8 12/14/8 9/9/8
f 8/5/9 4/3/9 10/13/9 11/12/9
f 12/14/10 6/7/10 14/15/10 16/16/10
f 14/15/11 13/17/11 15/18/11 16/16/11
f 11/12/12 12/14/12 16/16/12 15/18/12
f 6/7/13 8/5/13 13/17/13 14/15/13
f 8/5/14 11/12/14 15/18/14 13/17/14
f 17/11/15 19/10/15 23/19/15 21/20/15
f 9/9/16 10/13/16 20/21/16 19/10/16
f 10/13/17 4/3/17 18/22/17 20/21/17
f 4/3/18 2/2/18 17/11/18 18/22/18
f 22/23/19 21/20/19 23/19/19 24/24/19
f 18/22/20 17/11/20 21/20/20 22/23/20
f 20/21/21 18/22/21 22/23/21 24/24/21
f 19/10/22 20/21/22 24/24/22 23/19/22
f 25/25/1 26/26/1 28/27/1 27/28/1
f 27/28/2 28/27/2 32/29/2 31/30/2
f 31/30/3 32/29/3 30/31/3 29/32/3
f 29/32/4 30/31/4 26/26/4 25/25/4
f 27/28/5 31/30/5 29/32/5 25/25/5
f 26/26/6 33/33/6 43/34/6 41/35/6
f 35/36/7 34/37/7 33/33/7 36/38/7
f 26/26/8 30/31/8 36/38/8 33/33/8
f 32/29/9 28/27/9 34/37/9 35/36/9
f 36/38/10 30/31/10 38/39/10 40/40/10
f 38/39/11 37/41/11 39/42/11 40/40/11
f 35/36/12 36/38/12 40/40/12 39/42/12
f 30/31/13 32/29/13 37/41/13 38/39/13
f 32/29/14 35/36/14 39/42/14 37/41/14
f 41/35/15 43/34/15 47/43/15 45/44/15
f 33/33/16 34/37/16 44/45/16 43/34/16
f 34/37/17 28/27/17 42/46/17 44/45/17
f 28/27/18 26/26/18 41/35/18 42/46/18
f 46/47/19 45/44/19 47/43/19 48/48/19
f 42/46/20 41/35/20 45/44/20 46/47/20
f 44/45/21 42/46/21 46/47/21 48/48/21
f 43/34/22 44/45/22 48/48/22 47/43/22
f 49/49/23 51/50/23 52/51/23 50/52/23
f 51/50/24 55/53/24 56/54/24 52/51/24
f 55/53/25 53/55/25 54/56/25 56/54/25
f 53/55/26 49/49/26 50/52/26 54/56/26
f 51/50/27 49/49/27 53/55/27 55/53/27
f 56/54/28 54/56/28 50/52/28 52/51/28
f 57/57/29 59/58/29 60/59/29 58/60/29
f 59/58/24 63/61/24 64/62/24 60/59/24
f 63/61/30 61/63/30 62/64/30 64/62/30
f 61/63/26 57/57/26 58/60/26 62/64/26
f 59/58/31 57/57/31 61/63/31 63/61/31
f 64/62/32 62/64/32 58/60/32 60/59/32
f 73/65/33 67/66/33 68/67/33 76/68/33
f 67/66/24 71/69/24 72/70/24 68/67/24
f 77/71/34 69/72/34 70/73/34 80/74/34
f 69/72/26 65/75/26 66/76/26 70/73/26
f 74/77/35 65/75/35 69/72/35 77/71/35
f 80/74/36 70/73/36 66/76/36 75/78/36
f 72/70/37 79/79/37 76/68/37 68/67/37
f 79/79/38 80/74/38 75/78/38 76/68/38
f 67/66/39 73/65/39 78/80/39 71/69/39
f 73/65/40 74/77/40 77/71/40 78/80/40
f 71/69/41 78/80/41 79/79/41 72/70/41
f 78/80/42 77/71/42 80/74/42 79/79/42
f 65/75/43 74/77/43 75/78/43 66/76/43
f 74/77/44 73/65/44 76/68/44 75/78/44
g bench_Cube.011_outline
usemtl outline
f 81/81/45 83/82/45 84/83/45 82/84/45
f 83/82/46 87/85/46 88/86/46 84/83/46
f 87/85/47 85/87/47 86/88/47 88/86/47
f 85/87/48 81/81/48 82/84/48 86/88/48
f 83/82/7 81/81/7 85/87/7 87/85/7
f 82/84/49 97/89/49 99/90/49 89/91/49
f 91/92/50 92/93/50 89/91/50 90/94/50
f 82/84/51 89/91/51 92/93/51 86/88/51
f 88/86/52 91/92/52 90/94/52 84/83/52
f 92/93/53 96/95/53 94/96/53 86/88/53
f 94/96/54 96/95/54 95/97/54 93/98/54
f 91/92/55 95/97/55 96/95/55 92/93/55
f 86/88/56 94/96/56 93/98/56 88/86/56
f 88/86/57 93/98/57 95/97/57 91/92/57
f 97/89/58 101/99/58 103/100/58 99/90/58
f 89/91/59 99/90/59 100/101/59 90/94/59
f 90/94/60 100/101/60 98/102/60 84/83/60
f 84/83/61 98/102/61 97/89/61 82/84/61
f 102/103/62 104/104/62 103/100/62 101/99/62
f 98/102/63 102/103/63 101/99/63 97/89/63
f 100/101/64 104/104/64 102/103/64 98/102/64
f 99/90/65 103/100/65 104/104/65 100/101/65
f 105/105/45 107/106/45 108/107/45 106/108/45
f 107/106/46 111/109/46 112/110/46 108/107/46
f 111/109/47 109/111/47 110/112/47 112/110/47
f 109/111/48 105/105/48 106/108/48 110/112/48
f 107/106/7 105/105/7 109/111/7 111/109/7
f 106/108/49 121/113/49 123/114/49 113/115/49
f 115/116/50 116/117/50 113/115/50 114/118/50
f 106/108/51 113/115/51 116/117/51 110/112/51
f 112/110/52 115/116/52 114/118/52 108/107/52
f 116/117/53 120/119/53 118/120/53 110/112/53
f 118/120/54 120/119/54 119/121/54 117/122/54
f 115/116/55 119/121/55 120/119/55 116/117/55
f 110/112/56 118/120/56 117/122/56 112/110/56
f 112/110/57 117/122/57 119/121/57 115/116/57
f 121/113/58 125/123/58 127/124/58 123/114/58
f 113/115/59 123/114/59 124/125/59 114/118/59
f 114/118/60 124/125/60 122/126/60 108/107/60
f 108/107/61 122/126/61 121/113/61 106/108/61
f 126/127/62 128/128/62 127/124/62 125/123/62
f 122/126/63 126/127/63 125/123/63 121/113/63
f 124/125/64 128/128/64 126/127/64 122/126/64
f 123/114/65 127/124/65 128/128/65 124/125/65
f 129/129/25 130/130/25 132/131/25 131/132/25
f 131/132/26 132/131/26 136/133/26 135/134/26
f 135/134/23 136/133/23 134/135/23 133/136/23
f 133/136/24 134/135/24 130/130/24 129/129/24
f 131/132/28 135/134/28 133/136/28 129/129/28
f 136/133/27 132/131/27 130/130/27 134/135/27
f 137/137/30 138/138/30 140/139/30 139/140/30
f 139/140/26 140/139/26 144/141/26 143/142/26
f 143/142/29 144/141/29 142/143/29 141/144/29
f 141/144/24 142/143/24 138/138/24 137/137/24
f 139/140/32 143/142/32 141/144/32 137/137/32
f 144/141/31 140/139/31 138/138/31 142/143/31
f 153/145/66 156/146/66 148/147/66 147/148/66
f 147/148/67 148/147/67 152/149/67 151/150/67
f 157/151/68 160/152/68 150/153/68 149/154/68
f 149/154/69 150/153/69 146/155/69 145/156/69
f 154/157/70 157/151/70 149/154/70 145/156/70
f 160/152/71 155/158/71 146/155/71 150/153/71
f 152/149/72 148/147/72 156/146/72 159/159/72
f 159/159/73 156/146/73 155/158/73 160/152/73
f 147/148/74 151/150/74 158/160/74 153/145/74
f 153/145/75 158/160/75 157/151/75 154/157/75
f 151/150/76 152/149/76 159/159/76 158/160/76
f 158/160/77 159/159/77 160/152/77 157/151/77
f 145/156/78 146/155/78 155/158/78 154/157/78
f 154/157/79 155/158/79 156/146/79 153/145/79
