# Blender v2.81 (sub 16) OBJ File: 'mushroom3_export.blend'
# www.blender.org
mtllib leaves2_red.mtl
o leaves2_red_Plane.016
v 0.706436 0.054437 -0.420362
v 0.774466 0.045955 -0.399111
v 0.799210 0.050196 -0.597841
v 0.740486 0.038961 -0.572401
v 0.691700 0.050196 -0.531583
v 0.673500 0.059907 -0.484466
v 0.838035 0.040486 -0.433070
v 0.849891 0.050196 -0.482168
v 0.833013 0.061431 -0.543498
v 0.683824 0.058863 -0.452835
v 0.811541 0.041530 -0.412939
v 0.543499 0.044912 -0.034881
v 0.497139 0.052239 -0.097912
v 0.345767 0.048575 0.061989
v 0.413618 0.042224 0.078135
v 0.483947 0.048575 0.073282
v 0.531839 0.049000 0.042585
v 0.419716 0.048150 -0.109856
v 0.376147 0.048575 -0.073282
v 0.350565 0.054927 -0.007592
v 0.543002 0.045984 0.008092
v 0.455968 0.051166 -0.110238
v -0.815135 0.049745 0.218471
v -0.760563 0.050647 0.190574
v -0.865170 0.050196 0.053271
v -0.886268 0.047523 0.103567
v -0.891316 0.050196 0.158677
v -0.873562 0.051279 0.199683
v -0.741576 0.049114 0.132212
v -0.764418 0.050196 0.093806
v -0.812044 0.052870 0.065624
v -0.848258 0.050442 0.212746
v -0.745806 0.049951 0.160372
v -0.717659 0.047896 0.070445
v -0.687792 0.052496 0.087384
v -0.655819 0.050196 -0.003796
v -0.685874 0.047909 0.001867
v -0.713193 0.050196 0.016447
v -0.726889 0.049528 0.037353
v -0.654654 0.050864 0.078319
v -0.643742 0.050196 0.055834
v -0.645252 0.052483 0.024904
v -0.725168 0.048053 0.053152
v -0.669096 0.052340 0.084951
v 0.865541 0.048117 0.155443
v 0.896490 0.052275 0.185747
v 0.964966 0.050196 0.084859
v 0.926501 0.047629 0.082039
v 0.888463 0.050196 0.091008
v 0.864990 0.049866 0.112094
v 0.939840 0.050527 0.185386
v 0.960428 0.050196 0.161475
v 0.968594 0.052764 0.123256
v 0.861956 0.048408 0.131945
v 0.920058 0.051984 0.188837
v 0.152727 0.055050 1.223607
v 0.219875 0.045343 1.231552
v 0.208312 0.050196 1.041552
v 0.158084 0.046942 1.074732
v 0.119620 0.050196 1.122099
v 0.110740 0.056004 1.170322
v 0.273138 0.044389 1.189538
v 0.275758 0.050196 1.140573
v 0.249410 0.053450 1.085538
v 0.125904 0.057137 1.197866
v 0.251964 0.043255 1.212781
v -0.682754 0.053208 -1.086244
v -0.651699 0.047184 -1.152645
v -0.851265 0.050196 -1.205518
v -0.834304 0.048367 -1.142552
v -0.798585 0.050196 -1.086792
v -0.751748 0.053701 -1.061114
v -0.676640 0.046692 -1.221708
v -0.726372 0.050196 -1.241194
v -0.792066 0.052025 -1.232864
v -0.718252 0.054449 -1.067346
v -0.659950 0.045943 -1.192004
v -0.674502 0.047124 0.322351
v -0.674502 0.053268 0.368209
v -0.547511 0.050196 0.345280
v -0.573891 0.047142 0.314095
v -0.608828 0.050196 0.291964
v -0.642138 0.049304 0.289826
v -0.642138 0.051088 0.400734
v -0.608828 0.050196 0.398597
v -0.573891 0.053250 0.376465
v -0.659359 0.047333 0.302235
v -0.659359 0.053059 0.388326
vt 0.032682 0.763172
vt 0.049237 0.763172
vt 0.040960 0.770148
vt 0.029534 0.740404
vt 0.052386 0.740404
vt 0.055679 0.745003
vt 0.026241 0.745003
vt 0.055112 0.753872
vt 0.026808 0.753872
vt 0.034874 0.736405
vt 0.047046 0.736405
vt 0.032682 0.787459
vt 0.049237 0.787459
vt 0.040960 0.794434
vt 0.029534 0.764690
vt 0.052386 0.764690
vt 0.055679 0.769289
vt 0.026241 0.769289
vt 0.055112 0.778158
vt 0.026808 0.778158
vt 0.034874 0.760691
vt 0.047046 0.760691
vt 0.032682 0.787459
vt 0.049237 0.787459
vt 0.040960 0.794434
vt 0.029534 0.764690
vt 0.052386 0.764690
vt 0.055679 0.769289
vt 0.026241 0.769289
vt 0.055112 0.778158
vt 0.026808 0.778158
vt 0.034874 0.760691
vt 0.047046 0.760691
vt 0.032682 0.763172
vt 0.049237 0.763172
vt 0.040960 0.770148
vt 0.029534 0.740404
vt 0.052386 0.740404
vt 0.055679 0.745003
vt 0.026241 0.745003
vt 0.055112 0.753872
vt 0.026808 0.753872
vt 0.034874 0.736405
vt 0.047046 0.736405
vt 0.032682 0.763172
vt 0.049237 0.763172
vt 0.040960 0.770148
vt 0.029534 0.740404
vt 0.052386 0.740404
vt 0.055679 0.745003
vt 0.026241 0.745003
vt 0.055112 0.753872
vt 0.026808 0.753872
vt 0.034874 0.736405
vt 0.047046 0.736405
vt 0.032682 0.740436
vt 0.049237 0.740436
vt 0.040960 0.747411
vt 0.029534 0.717668
vt 0.052386 0.717668
vt 0.055679 0.722266
vt 0.026241 0.722266
vt 0.055112 0.731136
vt 0.026808 0.731136
vt 0.034874 0.713669
vt 0.047046 0.713669
vt 0.032682 0.740436
vt 0.049237 0.740436
vt 0.040960 0.747411
vt 0.029534 0.717668
vt 0.052386 0.717668
vt 0.055679 0.722266
vt 0.026241 0.722266
vt 0.055112 0.731136
vt 0.026808 0.731136
vt 0.034874 0.713669
vt 0.047046 0.713669
vt 0.032682 0.763172
vt 0.049237 0.763172
vt 0.040960 0.770148
vt 0.029534 0.740404
vt 0.052386 0.740404
vt 0.055679 0.745003
vt 0.026241 0.745003
vt 0.055112 0.753872
vt 0.026808 0.753872
vt 0.034874 0.736405
vt 0.047046 0.736405
vn -0.2155 0.9742 -0.0673
vn 0.1138 0.9929 0.0355
vn 0.0547 0.9984 0.0171
vn -0.0814 0.9964 -0.0254
vn 0.1192 0.9922 0.0372
vn 0.0702 0.9930 0.0955
vn 0.0076 0.9999 0.0104
vn -0.0014 1.0000 -0.0018
vn 0.0261 0.9990 0.0355
vn 0.0329 0.9985 0.0447
vn -0.0570 0.9979 0.0291
vn 0.0090 0.9999 -0.0046
vn 0.0066 1.0000 -0.0034
vn -0.0211 0.9997 0.0108
vn -0.0021 1.0000 0.0011
vn -0.0848 0.9952 -0.0481
vn -0.0331 0.9993 -0.0188
vn -0.0071 1.0000 -0.0040
vn -0.0314 0.9993 -0.0178
vn -0.0779 0.9960 -0.0442
vn -0.0620 0.9962 -0.0608
vn -0.0163 0.9997 -0.0159
vn -0.0023 1.0000 -0.0022
vn -0.0230 0.9995 -0.0225
vn -0.0442 0.9981 -0.0433
vn -0.0701 0.9975 -0.0083
vn 0.0868 0.9962 0.0103
vn 0.0359 0.9993 0.0043
vn -0.0259 0.9997 -0.0031
vn 0.1195 0.9927 0.0141
vn -0.0155 0.9993 0.0332
vn 0.0208 0.9988 -0.0446
vn 0.0085 0.9998 -0.0183
vn -0.0057 0.9999 0.0123
vn 0.0291 0.9976 -0.0622
vn 0.0000 0.9952 -0.0975
vn -0.0000 0.9993 -0.0381
vn 0.0000 1.0000 -0.0082
vn 0.0000 0.9993 -0.0361
vn 0.0000 0.9960 -0.0896
g leaves2_red_Plane.016_color_palette
usemtl color_palette
s off
f 4/1/1 9/2/1 3/3/1
f 10/4/2 11/5/2 7/6/2 6/7/2
f 6/7/3 7/6/3 8/8/3 5/9/3
f 5/9/4 8/8/4 9/2/4 4/1/4
f 1/10/5 2/11/5 11/5/5 10/4/5
f 15/12/6 20/13/6 14/14/6
f 21/15/7 22/16/7 18/17/7 17/18/7
f 17/18/8 18/17/8 19/19/8 16/20/8
f 16/20/9 19/19/9 20/13/9 15/12/9
f 12/21/10 13/22/10 22/16/10 21/15/10
f 26/23/11 31/24/11 25/25/11
f 32/26/12 33/27/12 29/28/12 28/29/12
f 28/29/13 29/28/13 30/30/13 27/31/13
f 27/31/14 30/30/14 31/24/14 26/23/14
f 23/32/15 24/33/15 33/27/15 32/26/15
f 37/34/16 42/35/16 36/36/16
f 43/37/17 44/38/17 40/39/17 39/40/17
f 39/40/18 40/39/18 41/41/18 38/42/18
f 38/42/19 41/41/19 42/35/19 37/34/19
f 34/43/20 35/44/20 44/38/20 43/37/20
f 48/45/21 53/46/21 47/47/21
f 54/48/22 55/49/22 51/50/22 50/51/22
f 50/51/23 51/50/23 52/52/23 49/53/23
f 49/53/24 52/52/24 53/46/24 48/45/24
f 45/54/25 46/55/25 55/49/25 54/48/25
f 59/56/26 64/57/26 58/58/26
f 65/59/27 66/60/27 62/61/27 61/62/27
f 61/62/28 62/61/28 63/63/28 60/64/28
f 60/64/29 63/63/29 64/57/29 59/56/29
f 56/65/30 57/66/30 66/60/30 65/59/30
f 70/67/31 75/68/31 69/69/31
f 76/70/32 77/71/32 73/72/32 72/73/32
f 72/73/33 73/72/33 74/74/33 71/75/33
f 71/75/34 74/74/34 75/68/34 70/67/34
f 67/76/35 68/77/35 77/71/35 76/70/35
f 81/78/36 86/79/36 80/80/36
f 87/81/37 88/82/37 84/83/37 83/84/37
f 83/84/38 84/83/38 85/85/38 82/86/38
f 82/86/39 85/85/39 86/79/39 81/78/39
f 78/87/40 79/88/40 88/82/40 87/81/40
