# Blender v2.81 (sub 16) OBJ File: 'mushroom3_export.blend'
# www.blender.org
mtllib leaves3_red.mtl
o leaves3_red_Plane.000
v 0.163654 0.054437 -0.121850
v 0.208493 0.045955 -0.066449
v 0.339256 0.050196 -0.218129
v 0.276278 0.038961 -0.229512
v 0.213046 0.050196 -0.222585
v 0.171780 0.059907 -0.193460
v 0.280225 0.040486 -0.059472
v 0.317310 0.050196 -0.093763
v 0.337263 0.061431 -0.154162
v 0.162836 0.058863 -0.161411
v 0.247015 0.041530 -0.057405
v -0.317783 0.005141 0.115467
v -0.339478 0.012468 0.190643
v -0.120445 0.008805 0.213136
v -0.149014 0.002453 0.149510
v -0.195740 0.008805 0.096724
v -0.249271 0.009230 0.077478
v -0.301742 0.008379 0.259293
v -0.246188 0.008805 0.271530
v -0.178522 0.015156 0.251756
v -0.283417 0.006213 0.089660
v -0.324146 0.011396 0.230792
v -0.007781 0.049745 -0.843869
v 0.005590 0.050647 -0.784055
v 0.164683 0.050196 -0.851020
v 0.121257 0.047523 -0.884021
v 0.069158 0.050196 -0.902685
v 0.025016 0.051279 -0.895744
v 0.057353 0.049114 -0.751082
v 0.100250 0.050196 -0.763599
v 0.139442 0.052870 -0.802669
v 0.006042 0.050442 -0.874509
v 0.031144 0.049951 -0.762217
v 0.111181 0.047896 -0.712486
v 0.087314 0.052496 -0.687801
v 0.167607 0.050196 -0.634051
v 0.169637 0.047909 -0.664567
v 0.162348 0.050196 -0.694664
v 0.145530 0.049528 -0.713151
v 0.087808 0.050864 -0.653449
v 0.106852 0.050196 -0.637263
v 0.137177 0.052483 -0.630993
v 0.129802 0.048053 -0.715434
v 0.084996 0.052340 -0.669091
v -0.366863 0.048117 0.799209
v -0.403942 0.052275 0.821600
v -0.323373 0.050196 0.913121
v -0.311028 0.047629 0.876582
v -0.310203 0.050196 0.837510
v -0.324753 0.049866 0.809511
v -0.414428 0.050527 0.863665
v -0.396422 0.050196 0.889576
v -0.361458 0.052764 0.907036
v -0.343215 0.048408 0.801612
v -0.412824 0.051984 0.843648
v -1.043648 0.055050 0.198918
v -0.992167 0.045343 0.242755
v -0.896460 0.050196 0.078213
v -0.956658 0.046942 0.077984
v -1.014929 0.050196 0.096082
v -1.049054 0.056004 0.131295
v -0.924546 0.044389 0.237315
v -0.895222 0.050196 0.198016
v -0.886641 0.053450 0.137605
v -1.051701 0.057137 0.162625
v -0.955054 0.043255 0.244922
v 0.673826 0.053208 0.072149
v 0.665566 0.047184 -0.000688
v 0.467818 0.050196 0.058622
v 0.515206 0.048367 0.103418
v 0.574813 0.050196 0.132263
v 0.628163 0.053701 0.129653
v 0.608188 0.046692 -0.046508
v 0.555608 0.050196 -0.037106
v 0.503973 0.052025 0.004353
v 0.653454 0.054449 0.106823
v 0.637948 0.045943 -0.029920
v -0.143516 0.047124 -0.733666
v -0.187918 0.053268 -0.745129
v -0.197461 0.050196 -0.616438
v -0.160671 0.047142 -0.634185
v -0.130510 0.050196 -0.662481
v -0.120113 0.049304 -0.694200
v -0.227501 0.051088 -0.721923
v -0.233757 0.050196 -0.689136
v -0.221062 0.053250 -0.649776
v -0.127824 0.047333 -0.713975
v -0.211182 0.053059 -0.735495
vt 0.031367 0.794439
vt 0.049425 0.794439
vt 0.040396 0.802048
vt 0.027933 0.769604
vt 0.052859 0.769604
vt 0.056452 0.774620
vt 0.024340 0.774620
vt 0.055833 0.784294
vt 0.024959 0.784294
vt 0.033758 0.765241
vt 0.047035 0.765241
vt 0.031367 0.772737
vt 0.049425 0.772737
vt 0.040396 0.780345
vt 0.027933 0.747901
vt 0.052859 0.747901
vt 0.056452 0.752917
vt 0.024340 0.752917
vt 0.055833 0.762592
vt 0.024959 0.762592
vt 0.033758 0.743538
vt 0.047035 0.743538
vt 0.031367 0.804774
vt 0.049425 0.804774
vt 0.040396 0.812382
vt 0.027933 0.779938
vt 0.052859 0.779938
vt 0.056452 0.784955
vt 0.024340 0.784955
vt 0.055833 0.794629
vt 0.024959 0.794629
vt 0.033758 0.775576
vt 0.047035 0.775576
vt 0.031367 0.772737
vt 0.049425 0.772737
vt 0.040396 0.780345
vt 0.027933 0.747901
vt 0.052859 0.747901
vt 0.056452 0.752917
vt 0.024340 0.752917
vt 0.055833 0.762592
vt 0.024959 0.762592
vt 0.033758 0.743538
vt 0.047035 0.743538
vt 0.031367 0.772737
vt 0.049425 0.772737
vt 0.040396 0.780345
vt 0.027933 0.747901
vt 0.052859 0.747901
vt 0.056452 0.752917
vt 0.024340 0.752917
vt 0.055833 0.762592
vt 0.024959 0.762592
vt 0.033758 0.743538
vt 0.047035 0.743538
vt 0.031367 0.794181
vt 0.049425 0.794181
vt 0.040396 0.801790
vt 0.027933 0.769345
vt 0.052859 0.769345
vt 0.056452 0.774362
vt 0.024340 0.774362
vt 0.055833 0.784036
vt 0.024959 0.784036
vt 0.033758 0.764983
vt 0.047035 0.764983
vt 0.031367 0.755684
vt 0.049425 0.755684
vt 0.040396 0.763293
vt 0.027933 0.730849
vt 0.052859 0.730849
vt 0.056452 0.735865
vt 0.024340 0.735865
vt 0.055833 0.745539
vt 0.024959 0.745539
vt 0.033758 0.726486
vt 0.047035 0.726486
vt 0.031367 0.772737
vt 0.049425 0.772737
vt 0.040396 0.780345
vt 0.027933 0.747901
vt 0.052859 0.747901
vt 0.056452 0.752917
vt 0.024340 0.752917
vt 0.055833 0.762592
vt 0.024959 0.762592
vt 0.033758 0.743538
vt 0.047035 0.743538
vn -0.1421 0.9742 -0.1755
vn 0.0750 0.9929 0.0926
vn 0.0361 0.9984 0.0446
vn -0.0536 0.9964 -0.0663
vn 0.0786 0.9922 0.0971
vn 0.0329 0.9930 -0.1139
vn 0.0036 0.9999 -0.0124
vn -0.0006 1.0000 0.0022
vn 0.0122 0.9990 -0.0423
vn 0.0154 0.9985 -0.0533
vn -0.0140 0.9979 -0.0625
vn 0.0022 0.9999 0.0098
vn 0.0016 1.0000 0.0073
vn -0.0052 0.9997 -0.0231
vn -0.0005 1.0000 -0.0023
vn 0.0677 0.9952 -0.0701
vn 0.0265 0.9993 -0.0274
vn 0.0057 1.0000 -0.0059
vn 0.0251 0.9993 -0.0260
vn 0.0623 0.9960 -0.0644
vn 0.0743 0.9962 -0.0449
vn 0.0195 0.9997 -0.0118
vn 0.0028 1.0000 -0.0017
vn 0.0275 0.9995 -0.0166
vn 0.0530 0.9981 -0.0320
vn -0.0537 0.9975 -0.0458
vn 0.0666 0.9962 0.0567
vn 0.0276 0.9993 0.0235
vn -0.0199 0.9997 -0.0169
vn 0.0916 0.9927 0.0780
vn 0.0041 0.9993 0.0364
vn -0.0055 0.9988 -0.0489
vn -0.0023 0.9998 -0.0200
vn 0.0015 0.9999 0.0135
vn -0.0077 0.9976 -0.0683
vn 0.0944 0.9952 0.0244
vn 0.0369 0.9993 0.0095
vn 0.0079 1.0000 0.0020
vn 0.0350 0.9993 0.0090
vn 0.0868 0.9960 0.0224
g leaves3_red_Plane.000_color_palette
usemtl color_palette
s off
f 4/1/1 9/2/1 3/3/1
f 10/4/2 11/5/2 7/6/2 6/7/2
f 6/7/3 7/6/3 8/8/3 5/9/3
f 5/9/4 8/8/4 9/2/4 4/1/4
f 1/10/5 2/11/5 11/5/5 10/4/5
f 15/12/6 20/13/6 14/14/6
f 21/15/7 22/16/7 18/17/7 17/18/7
f 17/18/8 18/17/8 19/19/8 16/20/8
f 16/20/9 19/19/9 20/13/9 15/12/9
f 12/21/10 13/22/10 22/16/10 21/15/10
f 26/23/11 31/24/11 25/25/11
f 32/26/12 33/27/12 29/28/12 28/29/12
f 28/29/13 29/28/13 30/30/13 27/31/13
f 27/31/14 30/30/14 31/24/14 26/23/14
f 23/32/15 24/33/15 33/27/15 32/26/15
f 37/34/16 42/35/16 36/36/16
f 43/37/17 44/38/17 40/39/17 39/40/17
f 39/40/18 40/39/18 41/41/18 38/42/18
f 38/42/19 41/41/19 42/35/19 37/34/19
f 34/43/20 35/44/20 44/38/20 43/37/20
f 48/45/21 53/46/21 47/47/21
f 54/48/22 55/49/22 51/50/22 50/51/22
f 50/51/23 51/50/23 52/52/23 49/53/23
f 49/53/24 52/52/24 53/46/24 48/45/24
f 45/54/25 46/55/25 55/49/25 54/48/25
f 59/56/26 64/57/26 58/58/26
f 65/59/27 66/60/27 62/61/27 61/62/27
f 61/62/28 62/61/28 63/63/28 60/64/28
f 60/64/29 63/63/29 64/57/29 59/56/29
f 56/65/30 57/66/30 66/60/30 65/59/30
f 70/67/31 75/68/31 69/69/31
f 76/70/32 77/71/32 73/72/32 72/73/32
f 72/73/33 73/72/33 74/74/33 71/75/33
f 71/75/34 74/74/34 75/68/34 70/67/34
f 67/76/35 68/77/35 77/71/35 76/70/35
f 81/78/36 86/79/36 80/80/36
f 87/81/37 88/82/37 84/83/37 83/84/37
f 83/84/38 84/83/38 85/85/38 82/86/38
f 82/86/39 85/85/39 86/79/39 81/78/39
f 78/87/40 79/88/40 88/82/40 87/81/40
