# Blender v2.81 (sub 16) OBJ File: 'mushroom3_export.blend'
# www.blender.org
mtllib leaves1_red.mtl
o leaves1_red_Plane.018
v 0.344072 0.054437 -0.526355
v 0.414196 0.045955 -0.513614
v 0.414362 0.050196 -0.713878
v 0.359204 0.038961 -0.681424
v 0.315796 0.050196 -0.634926
v 0.303517 0.059907 -0.585932
v 0.473116 0.040486 -0.555118
v 0.478856 0.050196 -0.605300
v 0.454579 0.061431 -0.664095
v 0.317645 0.058863 -0.555807
v 0.449293 0.041530 -0.531888
v 0.507156 0.005141 -0.191351
v 0.545212 0.012468 -0.259715
v 0.336859 0.008805 -0.330923
v 0.350378 0.002453 -0.262500
v 0.384026 0.008805 -0.200552
v 0.431853 0.009230 -0.169754
v 0.523893 0.008379 -0.335098
v 0.472518 0.008805 -0.359522
v 0.402137 0.015156 -0.355482
v 0.467864 0.006213 -0.173939
v 0.539309 0.011396 -0.302285
v -0.325118 0.049745 0.167815
v -0.385078 0.050647 0.180517
v -0.319894 0.050196 0.340347
v -0.286410 0.047523 0.297292
v -0.267166 0.050196 0.245406
v -0.273613 0.051279 0.201188
v -0.418627 0.049114 0.231908
v -0.406590 0.050196 0.274942
v -0.367960 0.052870 0.314568
v -0.294634 0.050442 0.181979
v -0.407200 0.049951 0.205825
v -0.457822 0.047896 0.285301
v -0.482239 0.052496 0.261160
v -0.536883 0.050196 0.340848
v -0.506391 0.047909 0.343218
v -0.476215 0.050196 0.336266
v -0.457541 0.049528 0.319655
v -0.516595 0.050864 0.261270
v -0.532992 0.050196 0.280132
v -0.539600 0.052483 0.310385
v -0.455083 0.048053 0.303954
v -0.500922 0.052340 0.258633
v 0.766532 0.048117 0.358061
v 0.774947 0.052275 0.315572
v 0.653033 0.050196 0.313504
v 0.671732 0.047629 0.347235
v 0.700062 0.050196 0.374157
v 0.730559 0.049866 0.382255
v 0.750912 0.050527 0.279493
v 0.719631 0.050196 0.275356
v 0.683178 0.052764 0.289446
v 0.748831 0.048408 0.373926
v 0.764629 0.051984 0.294158
v 0.252175 0.055050 0.621226
v 0.188596 0.045343 0.598213
v 0.156629 0.050196 0.785861
v 0.213089 0.046942 0.764977
v 0.261321 0.050196 0.727604
v 0.280940 0.056004 0.682665
v 0.127171 0.044389 0.627007
v 0.113481 0.050196 0.674091
v 0.126616 0.053450 0.733677
v 0.272439 0.057137 0.652394
v 0.153078 0.043255 0.609190
v -0.269160 0.053208 -0.374003
v -0.195912 0.047184 -0.371130
v -0.224573 0.050196 -0.575582
v -0.276032 0.048367 -0.535529
v -0.313576 0.050196 -0.480981
v -0.319080 0.053701 -0.427851
v -0.141927 0.046692 -0.420902
v -0.143252 0.050196 -0.474300
v -0.176408 0.052025 -0.531621
v -0.300346 0.054449 -0.399393
v -0.162833 0.045943 -0.394000
v -0.433798 0.047124 0.030856
v -0.421840 0.053268 -0.013415
v -0.550416 0.050196 -0.024394
v -0.533081 0.047142 0.012591
v -0.505124 0.050196 0.043067
v -0.473523 0.049304 0.053817
v -0.444602 0.051088 -0.053254
v -0.477317 0.050196 -0.059877
v -0.516817 0.053250 -0.047622
v -0.453663 0.047333 0.046328
v -0.431213 0.053059 -0.036784
vt 0.040915 0.761175
vt 0.059764 0.761175
vt 0.050339 0.769117
vt 0.037330 0.735251
vt 0.063349 0.735251
vt 0.067099 0.740487
vt 0.033580 0.740487
vt 0.066453 0.750585
vt 0.034226 0.750585
vt 0.043410 0.730697
vt 0.057269 0.730697
vt 0.036969 0.742056
vt 0.055818 0.742056
vt 0.046393 0.749998
vt 0.033384 0.716132
vt 0.059403 0.716132
vt 0.063153 0.721368
vt 0.029634 0.721368
vt 0.062507 0.731466
vt 0.030280 0.731466
vt 0.039464 0.711578
vt 0.053323 0.711578
vt 0.040915 0.779777
vt 0.059764 0.779777
vt 0.050339 0.787719
vt 0.037330 0.753853
vt 0.063349 0.753853
vt 0.067099 0.759089
vt 0.033580 0.759089
vt 0.066453 0.769188
vt 0.034226 0.769188
vt 0.043410 0.749300
vt 0.057269 0.749300
vt 0.040915 0.761175
vt 0.059764 0.761175
vt 0.050339 0.769117
vt 0.037330 0.735251
vt 0.063349 0.735251
vt 0.067099 0.740487
vt 0.033580 0.740487
vt 0.066453 0.750585
vt 0.034226 0.750585
vt 0.043410 0.730697
vt 0.057269 0.730697
vt 0.040915 0.779777
vt 0.059764 0.779777
vt 0.050339 0.787719
vt 0.037330 0.753853
vt 0.063349 0.753853
vt 0.067099 0.759089
vt 0.033580 0.759089
vt 0.066453 0.769188
vt 0.034226 0.769188
vt 0.043410 0.749300
vt 0.057269 0.749300
vt 0.036969 0.742056
vt 0.055818 0.742056
vt 0.046393 0.749998
vt 0.033384 0.716132
vt 0.059403 0.716132
vt 0.063153 0.721368
vt 0.029634 0.721368
vt 0.062507 0.731466
vt 0.030280 0.731466
vt 0.039464 0.711578
vt 0.053323 0.711578
vt 0.040915 0.761175
vt 0.059764 0.761175
vt 0.050339 0.769117
vt 0.037330 0.735251
vt 0.063349 0.735251
vt 0.067099 0.740487
vt 0.033580 0.740487
vt 0.066453 0.750585
vt 0.034226 0.750585
vt 0.043410 0.730697
vt 0.057269 0.730697
vt 0.040915 0.761175
vt 0.059764 0.761175
vt 0.050339 0.769117
vt 0.037330 0.735251
vt 0.063349 0.735251
vt 0.067099 0.740487
vt 0.033580 0.740487
vt 0.066453 0.750585
vt 0.034226 0.750585
vt 0.043410 0.730697
vt 0.057269 0.730697
vn -0.2222 0.9742 -0.0404
vn 0.1173 0.9929 0.0213
vn 0.0564 0.9984 0.0103
vn -0.0839 0.9964 -0.0152
vn 0.1229 0.9922 0.0223
vn -0.0577 0.9930 0.1036
vn -0.0063 0.9999 0.0113
vn 0.0011 1.0000 -0.0020
vn -0.0214 0.9990 0.0385
vn -0.0270 0.9985 0.0485
vn 0.0626 0.9979 -0.0133
vn -0.0099 0.9999 0.0021
vn -0.0073 1.0000 0.0015
vn 0.0232 0.9997 -0.0049
vn 0.0023 1.0000 -0.0005
vn 0.0693 0.9952 0.0685
vn 0.0271 0.9993 0.0268
vn 0.0058 1.0000 0.0058
vn 0.0257 0.9993 0.0254
vn 0.0637 0.9960 0.0630
vn -0.0169 0.9962 0.0852
vn -0.0044 0.9997 0.0223
vn -0.0006 1.0000 0.0032
vn -0.0062 0.9995 0.0315
vn -0.0120 0.9981 0.0607
vn 0.0664 0.9975 0.0240
vn -0.0822 0.9962 -0.0298
vn -0.0340 0.9993 -0.0123
vn 0.0246 0.9997 0.0089
vn -0.1132 0.9927 -0.0410
vn -0.0366 0.9993 -0.0014
vn 0.0492 0.9988 0.0019
vn 0.0201 0.9998 0.0008
vn -0.0135 0.9999 -0.0005
vn 0.0687 0.9976 0.0027
vn -0.0254 0.9952 0.0941
vn -0.0099 0.9993 0.0368
vn -0.0021 1.0000 0.0079
vn -0.0094 0.9993 0.0349
vn -0.0234 0.9960 0.0865
g leaves1_red_Plane.018_color_palette
usemtl color_palette
s off
f 4/1/1 9/2/1 3/3/1
f 10/4/2 11/5/2 7/6/2 6/7/2
f 6/7/3 7/6/3 8/8/3 5/9/3
f 5/9/4 8/8/4 9/2/4 4/1/4
f 1/10/5 2/11/5 11/5/5 10/4/5
f 15/12/6 20/13/6 14/14/6
f 21/15/7 22/16/7 18/17/7 17/18/7
f 17/18/8 18/17/8 19/19/8 16/20/8
f 16/20/9 19/19/9 20/13/9 15/12/9
f 12/21/10 13/22/10 22/16/10 21/15/10
f 26/23/11 31/24/11 25/25/11
f 32/26/12 33/27/12 29/28/12 28/29/12
f 28/29/13 29/28/13 30/30/13 27/31/13
f 27/31/14 30/30/14 31/24/14 26/23/14
f 23/32/15 24/33/15 33/27/15 32/26/15
f 37/34/16 42/35/16 36/36/16
f 43/37/17 44/38/17 40/39/17 39/40/17
f 39/40/18 40/39/18 41/41/18 38/42/18
f 38/42/19 41/41/19 42/35/19 37/34/19
f 34/43/20 35/44/20 44/38/20 43/37/20
f 48/45/21 53/46/21 47/47/21
f 54/48/22 55/49/22 51/50/22 50/51/22
f 50/51/23 51/50/23 52/52/23 49/53/23
f 49/53/24 52/52/24 53/46/24 48/45/24
f 45/54/25 46/55/25 55/49/25 54/48/25
f 59/56/26 64/57/26 58/58/26
f 65/59/27 66/60/27 62/61/27 61/62/27
f 61/62/28 62/61/28 63/63/28 60/64/28
f 60/64/29 63/63/29 64/57/29 59/56/29
f 56/65/30 57/66/30 66/60/30 65/59/30
f 70/67/31 75/68/31 69/69/31
f 76/70/32 77/71/32 73/72/32 72/73/32
f 72/73/33 73/72/33 74/74/33 71/75/33
f 71/75/34 74/74/34 75/68/34 70/67/34
f 67/76/35 68/77/35 77/71/35 76/70/35
f 81/78/36 86/79/36 80/80/36
f 87/81/37 88/82/37 84/83/37 83/84/37
f 83/84/38 84/83/38 85/85/38 82/86/38
f 82/86/39 85/85/39 86/79/39 81/78/39
f 78/87/40 79/88/40 88/82/40 87/81/40
